ISO-10303-21;
HEADER;
/* Generated by software containing ST-Developer
 * from STEP Tools, Inc. (www.steptools.com) 
 */
/* OPTION: using custom renumber hook */

FILE_DESCRIPTION(
/* description */ ('STEP AP242 Edition 2',
'CAx-IF Rec.Pracs.---Representation and Presentation of Product Manufa
cturing Information (PMI)---4.0---2014-10-13',
'CAx-IF Rec.Pracs.---3D Tessellated Geometry---0.4---2014-09-14','2;1',
'CAx-IF Rec.Pracs.---User Defined Attributes---1.5---2016-08-15'),
/* implementation_level */ '2;1');

FILE_NAME(
/* name */ '69546f7e07123b77856ffdd3',
/* time_stamp */ '2025-12-31T00:34:06Z',
/* author */ (''),
/* organization */ (''),
/* preprocessor_version */ 'ST-DEVELOPER v20',
/* originating_system */ 'ONSHAPE BY PTC INC, 1.208',
/* authorisation */ '  ');

FILE_SCHEMA (('AP242_MANAGED_MODEL_BASED_3D_ENGINEERING_MIM_LF { 1 0 10303 442 3 1 4 }'));
ENDSEC;

DATA;
#10=SHAPE_REPRESENTATION_RELATIONSHIP('','',#914,#11);
#11=ADVANCED_BREP_SHAPE_REPRESENTATION('',(#912),#1508);
#12=CIRCLE('',#918,0.0205934344367898);
#13=CIRCLE('',#919,0.0205934344367898);
#14=CIRCLE('',#922,0.00359021390250216);
#15=CIRCLE('',#923,0.00359021390250216);
#16=CIRCLE('',#928,0.00859972027927682);
#17=CIRCLE('',#929,0.00859972027927682);
#18=CIRCLE('',#935,0.0438296810656673);
#19=CIRCLE('',#936,0.0438296810656673);
#20=CIRCLE('',#941,0.00543384696327888);
#21=CIRCLE('',#942,0.00543384696327888);
#22=CIRCLE('',#946,0.0458296810656674);
#23=CIRCLE('',#947,0.0458296810656674);
#24=CIRCLE('',#953,0.0105997202792768);
#25=CIRCLE('',#954,0.0105997202792768);
#26=CIRCLE('',#959,0.00559021390250215);
#27=CIRCLE('',#960,0.00559021390250215);
#28=CIRCLE('',#963,0.0225934344367898);
#29=CIRCLE('',#964,0.0225934344367898);
#30=CIRCLE('',#966,0.00343384696327888);
#31=CIRCLE('',#967,0.00343384696327888);
#32=CIRCLE('',#970,0.0109338469632789);
#33=CIRCLE('',#971,0.0513296810656674);
#34=CIRCLE('',#972,0.0160997202792768);
#35=CIRCLE('',#973,0.0110902139025022);
#36=CIRCLE('',#974,0.0280934344367898);
#37=CIRCLE('',#976,0.0280934344367898);
#38=CIRCLE('',#977,0.0110902139025022);
#39=CIRCLE('',#978,0.0160997202792768);
#40=CIRCLE('',#979,0.0513296810656674);
#41=CIRCLE('',#980,0.0109338469632789);
#42=CYLINDRICAL_SURFACE('',#917,0.0205934344367898);
#43=CYLINDRICAL_SURFACE('',#921,0.00359021390250216);
#44=CYLINDRICAL_SURFACE('',#927,0.00859972027927682);
#45=CYLINDRICAL_SURFACE('',#934,0.0438296810656673);
#46=CYLINDRICAL_SURFACE('',#940,0.00543384696327888);
#47=CYLINDRICAL_SURFACE('',#945,0.0458296810656674);
#48=CYLINDRICAL_SURFACE('',#952,0.0105997202792768);
#49=CYLINDRICAL_SURFACE('',#958,0.00559021390250215);
#50=CYLINDRICAL_SURFACE('',#962,0.0225934344367898);
#51=CYLINDRICAL_SURFACE('',#965,0.00343384696327888);
#52=CYLINDRICAL_SURFACE('',#982,0.0109338469632789);
#53=CYLINDRICAL_SURFACE('',#985,0.0513296810656674);
#54=CYLINDRICAL_SURFACE('',#986,0.0160997202792768);
#55=CYLINDRICAL_SURFACE('',#989,0.0110902139025022);
#56=CYLINDRICAL_SURFACE('',#991,0.0280934344367898);
#57=ORIENTED_EDGE('',*,*,#315,.F.);
#58=ORIENTED_EDGE('',*,*,#316,.F.);
#59=ORIENTED_EDGE('',*,*,#317,.T.);
#60=ORIENTED_EDGE('',*,*,#318,.T.);
#61=ORIENTED_EDGE('',*,*,#319,.F.);
#62=ORIENTED_EDGE('',*,*,#320,.F.);
#63=ORIENTED_EDGE('',*,*,#321,.T.);
#64=ORIENTED_EDGE('',*,*,#316,.T.);
#65=ORIENTED_EDGE('',*,*,#322,.F.);
#66=ORIENTED_EDGE('',*,*,#323,.F.);
#67=ORIENTED_EDGE('',*,*,#324,.T.);
#68=ORIENTED_EDGE('',*,*,#320,.T.);
#69=ORIENTED_EDGE('',*,*,#325,.F.);
#70=ORIENTED_EDGE('',*,*,#326,.F.);
#71=ORIENTED_EDGE('',*,*,#327,.T.);
#72=ORIENTED_EDGE('',*,*,#323,.T.);
#73=ORIENTED_EDGE('',*,*,#328,.F.);
#74=ORIENTED_EDGE('',*,*,#329,.F.);
#75=ORIENTED_EDGE('',*,*,#330,.T.);
#76=ORIENTED_EDGE('',*,*,#326,.T.);
#77=ORIENTED_EDGE('',*,*,#331,.F.);
#78=ORIENTED_EDGE('',*,*,#332,.F.);
#79=ORIENTED_EDGE('',*,*,#333,.T.);
#80=ORIENTED_EDGE('',*,*,#329,.T.);
#81=ORIENTED_EDGE('',*,*,#334,.F.);
#82=ORIENTED_EDGE('',*,*,#335,.F.);
#83=ORIENTED_EDGE('',*,*,#336,.T.);
#84=ORIENTED_EDGE('',*,*,#332,.T.);
#85=ORIENTED_EDGE('',*,*,#337,.F.);
#86=ORIENTED_EDGE('',*,*,#338,.F.);
#87=ORIENTED_EDGE('',*,*,#339,.T.);
#88=ORIENTED_EDGE('',*,*,#335,.T.);
#89=ORIENTED_EDGE('',*,*,#340,.F.);
#90=ORIENTED_EDGE('',*,*,#341,.F.);
#91=ORIENTED_EDGE('',*,*,#342,.T.);
#92=ORIENTED_EDGE('',*,*,#338,.T.);
#93=ORIENTED_EDGE('',*,*,#343,.F.);
#94=ORIENTED_EDGE('',*,*,#344,.F.);
#95=ORIENTED_EDGE('',*,*,#345,.T.);
#96=ORIENTED_EDGE('',*,*,#341,.T.);
#97=ORIENTED_EDGE('',*,*,#346,.F.);
#98=ORIENTED_EDGE('',*,*,#347,.F.);
#99=ORIENTED_EDGE('',*,*,#348,.T.);
#100=ORIENTED_EDGE('',*,*,#344,.T.);
#101=ORIENTED_EDGE('',*,*,#349,.F.);
#102=ORIENTED_EDGE('',*,*,#350,.F.);
#103=ORIENTED_EDGE('',*,*,#351,.T.);
#104=ORIENTED_EDGE('',*,*,#347,.T.);
#105=ORIENTED_EDGE('',*,*,#352,.F.);
#106=ORIENTED_EDGE('',*,*,#353,.F.);
#107=ORIENTED_EDGE('',*,*,#354,.T.);
#108=ORIENTED_EDGE('',*,*,#350,.T.);
#109=ORIENTED_EDGE('',*,*,#355,.F.);
#110=ORIENTED_EDGE('',*,*,#356,.F.);
#111=ORIENTED_EDGE('',*,*,#357,.T.);
#112=ORIENTED_EDGE('',*,*,#353,.T.);
#113=ORIENTED_EDGE('',*,*,#358,.F.);
#114=ORIENTED_EDGE('',*,*,#359,.F.);
#115=ORIENTED_EDGE('',*,*,#360,.T.);
#116=ORIENTED_EDGE('',*,*,#356,.T.);
#117=ORIENTED_EDGE('',*,*,#361,.T.);
#118=ORIENTED_EDGE('',*,*,#362,.F.);
#119=ORIENTED_EDGE('',*,*,#363,.F.);
#120=ORIENTED_EDGE('',*,*,#364,.T.);
#121=ORIENTED_EDGE('',*,*,#365,.T.);
#122=ORIENTED_EDGE('',*,*,#366,.F.);
#123=ORIENTED_EDGE('',*,*,#367,.F.);
#124=ORIENTED_EDGE('',*,*,#362,.T.);
#125=ORIENTED_EDGE('',*,*,#368,.T.);
#126=ORIENTED_EDGE('',*,*,#369,.F.);
#127=ORIENTED_EDGE('',*,*,#370,.F.);
#128=ORIENTED_EDGE('',*,*,#366,.T.);
#129=ORIENTED_EDGE('',*,*,#371,.T.);
#130=ORIENTED_EDGE('',*,*,#372,.F.);
#131=ORIENTED_EDGE('',*,*,#373,.F.);
#132=ORIENTED_EDGE('',*,*,#369,.T.);
#133=ORIENTED_EDGE('',*,*,#374,.T.);
#134=ORIENTED_EDGE('',*,*,#375,.F.);
#135=ORIENTED_EDGE('',*,*,#376,.F.);
#136=ORIENTED_EDGE('',*,*,#372,.T.);
#137=ORIENTED_EDGE('',*,*,#377,.T.);
#138=ORIENTED_EDGE('',*,*,#378,.F.);
#139=ORIENTED_EDGE('',*,*,#379,.F.);
#140=ORIENTED_EDGE('',*,*,#375,.T.);
#141=ORIENTED_EDGE('',*,*,#380,.T.);
#142=ORIENTED_EDGE('',*,*,#381,.F.);
#143=ORIENTED_EDGE('',*,*,#382,.F.);
#144=ORIENTED_EDGE('',*,*,#378,.T.);
#145=ORIENTED_EDGE('',*,*,#383,.T.);
#146=ORIENTED_EDGE('',*,*,#384,.F.);
#147=ORIENTED_EDGE('',*,*,#385,.F.);
#148=ORIENTED_EDGE('',*,*,#381,.T.);
#149=ORIENTED_EDGE('',*,*,#386,.T.);
#150=ORIENTED_EDGE('',*,*,#387,.F.);
#151=ORIENTED_EDGE('',*,*,#388,.F.);
#152=ORIENTED_EDGE('',*,*,#384,.T.);
#153=ORIENTED_EDGE('',*,*,#389,.T.);
#154=ORIENTED_EDGE('',*,*,#390,.F.);
#155=ORIENTED_EDGE('',*,*,#391,.F.);
#156=ORIENTED_EDGE('',*,*,#387,.T.);
#157=ORIENTED_EDGE('',*,*,#392,.T.);
#158=ORIENTED_EDGE('',*,*,#393,.F.);
#159=ORIENTED_EDGE('',*,*,#394,.F.);
#160=ORIENTED_EDGE('',*,*,#390,.T.);
#161=ORIENTED_EDGE('',*,*,#395,.T.);
#162=ORIENTED_EDGE('',*,*,#396,.F.);
#163=ORIENTED_EDGE('',*,*,#397,.F.);
#164=ORIENTED_EDGE('',*,*,#393,.T.);
#165=ORIENTED_EDGE('',*,*,#398,.T.);
#166=ORIENTED_EDGE('',*,*,#399,.F.);
#167=ORIENTED_EDGE('',*,*,#400,.F.);
#168=ORIENTED_EDGE('',*,*,#396,.T.);
#169=ORIENTED_EDGE('',*,*,#401,.T.);
#170=ORIENTED_EDGE('',*,*,#402,.F.);
#171=ORIENTED_EDGE('',*,*,#403,.F.);
#172=ORIENTED_EDGE('',*,*,#399,.T.);
#173=ORIENTED_EDGE('',*,*,#404,.T.);
#174=ORIENTED_EDGE('',*,*,#405,.F.);
#175=ORIENTED_EDGE('',*,*,#406,.F.);
#176=ORIENTED_EDGE('',*,*,#402,.T.);
#177=ORIENTED_EDGE('',*,*,#407,.T.);
#178=ORIENTED_EDGE('',*,*,#364,.F.);
#179=ORIENTED_EDGE('',*,*,#408,.F.);
#180=ORIENTED_EDGE('',*,*,#405,.T.);
#181=ORIENTED_EDGE('',*,*,#409,.F.);
#182=ORIENTED_EDGE('',*,*,#318,.F.);
#183=ORIENTED_EDGE('',*,*,#410,.T.);
#184=ORIENTED_EDGE('',*,*,#359,.T.);
#185=ORIENTED_EDGE('',*,*,#361,.F.);
#186=ORIENTED_EDGE('',*,*,#407,.F.);
#187=ORIENTED_EDGE('',*,*,#404,.F.);
#188=ORIENTED_EDGE('',*,*,#401,.F.);
#189=ORIENTED_EDGE('',*,*,#398,.F.);
#190=ORIENTED_EDGE('',*,*,#395,.F.);
#191=ORIENTED_EDGE('',*,*,#392,.F.);
#192=ORIENTED_EDGE('',*,*,#389,.F.);
#193=ORIENTED_EDGE('',*,*,#386,.F.);
#194=ORIENTED_EDGE('',*,*,#383,.F.);
#195=ORIENTED_EDGE('',*,*,#380,.F.);
#196=ORIENTED_EDGE('',*,*,#377,.F.);
#197=ORIENTED_EDGE('',*,*,#374,.F.);
#198=ORIENTED_EDGE('',*,*,#371,.F.);
#199=ORIENTED_EDGE('',*,*,#368,.F.);
#200=ORIENTED_EDGE('',*,*,#365,.F.);
#201=ORIENTED_EDGE('',*,*,#315,.T.);
#202=ORIENTED_EDGE('',*,*,#409,.T.);
#203=ORIENTED_EDGE('',*,*,#358,.T.);
#204=ORIENTED_EDGE('',*,*,#355,.T.);
#205=ORIENTED_EDGE('',*,*,#352,.T.);
#206=ORIENTED_EDGE('',*,*,#349,.T.);
#207=ORIENTED_EDGE('',*,*,#346,.T.);
#208=ORIENTED_EDGE('',*,*,#343,.T.);
#209=ORIENTED_EDGE('',*,*,#340,.T.);
#210=ORIENTED_EDGE('',*,*,#337,.T.);
#211=ORIENTED_EDGE('',*,*,#334,.T.);
#212=ORIENTED_EDGE('',*,*,#331,.T.);
#213=ORIENTED_EDGE('',*,*,#328,.T.);
#214=ORIENTED_EDGE('',*,*,#325,.T.);
#215=ORIENTED_EDGE('',*,*,#322,.T.);
#216=ORIENTED_EDGE('',*,*,#319,.T.);
#217=ORIENTED_EDGE('',*,*,#317,.F.);
#218=ORIENTED_EDGE('',*,*,#321,.F.);
#219=ORIENTED_EDGE('',*,*,#324,.F.);
#220=ORIENTED_EDGE('',*,*,#327,.F.);
#221=ORIENTED_EDGE('',*,*,#330,.F.);
#222=ORIENTED_EDGE('',*,*,#333,.F.);
#223=ORIENTED_EDGE('',*,*,#336,.F.);
#224=ORIENTED_EDGE('',*,*,#339,.F.);
#225=ORIENTED_EDGE('',*,*,#342,.F.);
#226=ORIENTED_EDGE('',*,*,#345,.F.);
#227=ORIENTED_EDGE('',*,*,#348,.F.);
#228=ORIENTED_EDGE('',*,*,#351,.F.);
#229=ORIENTED_EDGE('',*,*,#354,.F.);
#230=ORIENTED_EDGE('',*,*,#357,.F.);
#231=ORIENTED_EDGE('',*,*,#360,.F.);
#232=ORIENTED_EDGE('',*,*,#410,.F.);
#233=ORIENTED_EDGE('',*,*,#411,.T.);
#234=ORIENTED_EDGE('',*,*,#412,.T.);
#235=ORIENTED_EDGE('',*,*,#413,.T.);
#236=ORIENTED_EDGE('',*,*,#414,.T.);
#237=ORIENTED_EDGE('',*,*,#415,.T.);
#238=ORIENTED_EDGE('',*,*,#416,.T.);
#239=ORIENTED_EDGE('',*,*,#417,.T.);
#240=ORIENTED_EDGE('',*,*,#418,.T.);
#241=ORIENTED_EDGE('',*,*,#419,.T.);
#242=ORIENTED_EDGE('',*,*,#420,.T.);
#243=ORIENTED_EDGE('',*,*,#421,.T.);
#244=ORIENTED_EDGE('',*,*,#408,.T.);
#245=ORIENTED_EDGE('',*,*,#363,.T.);
#246=ORIENTED_EDGE('',*,*,#367,.T.);
#247=ORIENTED_EDGE('',*,*,#370,.T.);
#248=ORIENTED_EDGE('',*,*,#373,.T.);
#249=ORIENTED_EDGE('',*,*,#376,.T.);
#250=ORIENTED_EDGE('',*,*,#379,.T.);
#251=ORIENTED_EDGE('',*,*,#382,.T.);
#252=ORIENTED_EDGE('',*,*,#385,.T.);
#253=ORIENTED_EDGE('',*,*,#388,.T.);
#254=ORIENTED_EDGE('',*,*,#391,.T.);
#255=ORIENTED_EDGE('',*,*,#394,.T.);
#256=ORIENTED_EDGE('',*,*,#397,.T.);
#257=ORIENTED_EDGE('',*,*,#400,.T.);
#258=ORIENTED_EDGE('',*,*,#403,.T.);
#259=ORIENTED_EDGE('',*,*,#406,.T.);
#260=ORIENTED_EDGE('',*,*,#422,.F.);
#261=ORIENTED_EDGE('',*,*,#423,.F.);
#262=ORIENTED_EDGE('',*,*,#424,.F.);
#263=ORIENTED_EDGE('',*,*,#425,.F.);
#264=ORIENTED_EDGE('',*,*,#426,.F.);
#265=ORIENTED_EDGE('',*,*,#427,.F.);
#266=ORIENTED_EDGE('',*,*,#428,.F.);
#267=ORIENTED_EDGE('',*,*,#429,.F.);
#268=ORIENTED_EDGE('',*,*,#430,.F.);
#269=ORIENTED_EDGE('',*,*,#431,.F.);
#270=ORIENTED_EDGE('',*,*,#432,.F.);
#271=ORIENTED_EDGE('',*,*,#422,.T.);
#272=ORIENTED_EDGE('',*,*,#433,.F.);
#273=ORIENTED_EDGE('',*,*,#411,.F.);
#274=ORIENTED_EDGE('',*,*,#434,.T.);
#275=ORIENTED_EDGE('',*,*,#432,.T.);
#276=ORIENTED_EDGE('',*,*,#435,.F.);
#277=ORIENTED_EDGE('',*,*,#412,.F.);
#278=ORIENTED_EDGE('',*,*,#433,.T.);
#279=ORIENTED_EDGE('',*,*,#431,.T.);
#280=ORIENTED_EDGE('',*,*,#436,.F.);
#281=ORIENTED_EDGE('',*,*,#413,.F.);
#282=ORIENTED_EDGE('',*,*,#435,.T.);
#283=ORIENTED_EDGE('',*,*,#430,.T.);
#284=ORIENTED_EDGE('',*,*,#437,.F.);
#285=ORIENTED_EDGE('',*,*,#414,.F.);
#286=ORIENTED_EDGE('',*,*,#436,.T.);
#287=ORIENTED_EDGE('',*,*,#429,.T.);
#288=ORIENTED_EDGE('',*,*,#438,.F.);
#289=ORIENTED_EDGE('',*,*,#415,.F.);
#290=ORIENTED_EDGE('',*,*,#437,.T.);
#291=ORIENTED_EDGE('',*,*,#428,.T.);
#292=ORIENTED_EDGE('',*,*,#439,.F.);
#293=ORIENTED_EDGE('',*,*,#416,.F.);
#294=ORIENTED_EDGE('',*,*,#438,.T.);
#295=ORIENTED_EDGE('',*,*,#427,.T.);
#296=ORIENTED_EDGE('',*,*,#440,.F.);
#297=ORIENTED_EDGE('',*,*,#417,.F.);
#298=ORIENTED_EDGE('',*,*,#439,.T.);
#299=ORIENTED_EDGE('',*,*,#426,.T.);
#300=ORIENTED_EDGE('',*,*,#441,.F.);
#301=ORIENTED_EDGE('',*,*,#418,.F.);
#302=ORIENTED_EDGE('',*,*,#440,.T.);
#303=ORIENTED_EDGE('',*,*,#425,.T.);
#304=ORIENTED_EDGE('',*,*,#442,.F.);
#305=ORIENTED_EDGE('',*,*,#419,.F.);
#306=ORIENTED_EDGE('',*,*,#441,.T.);
#307=ORIENTED_EDGE('',*,*,#424,.T.);
#308=ORIENTED_EDGE('',*,*,#443,.F.);
#309=ORIENTED_EDGE('',*,*,#420,.F.);
#310=ORIENTED_EDGE('',*,*,#442,.T.);
#311=ORIENTED_EDGE('',*,*,#423,.T.);
#312=ORIENTED_EDGE('',*,*,#434,.F.);
#313=ORIENTED_EDGE('',*,*,#421,.F.);
#314=ORIENTED_EDGE('',*,*,#443,.T.);
#315=EDGE_CURVE('',#444,#445,#530,.T.);
#316=EDGE_CURVE('',#446,#444,#531,.T.);
#317=EDGE_CURVE('',#446,#447,#532,.T.);
#318=EDGE_CURVE('',#447,#445,#533,.T.);
#319=EDGE_CURVE('',#448,#444,#12,.T.);
#320=EDGE_CURVE('',#449,#448,#534,.T.);
#321=EDGE_CURVE('',#449,#446,#13,.T.);
#322=EDGE_CURVE('',#450,#448,#535,.T.);
#323=EDGE_CURVE('',#451,#450,#536,.T.);
#324=EDGE_CURVE('',#451,#449,#537,.T.);
#325=EDGE_CURVE('',#452,#450,#14,.T.);
#326=EDGE_CURVE('',#453,#452,#538,.T.);
#327=EDGE_CURVE('',#453,#451,#15,.T.);
#328=EDGE_CURVE('',#454,#452,#539,.T.);
#329=EDGE_CURVE('',#455,#454,#540,.T.);
#330=EDGE_CURVE('',#455,#453,#541,.T.);
#331=EDGE_CURVE('',#456,#454,#542,.T.);
#332=EDGE_CURVE('',#457,#456,#543,.T.);
#333=EDGE_CURVE('',#457,#455,#544,.T.);
#334=EDGE_CURVE('',#458,#456,#545,.T.);
#335=EDGE_CURVE('',#459,#458,#546,.T.);
#336=EDGE_CURVE('',#459,#457,#547,.T.);
#337=EDGE_CURVE('',#460,#458,#16,.T.);
#338=EDGE_CURVE('',#461,#460,#548,.T.);
#339=EDGE_CURVE('',#461,#459,#17,.T.);
#340=EDGE_CURVE('',#462,#460,#549,.T.);
#341=EDGE_CURVE('',#463,#462,#550,.T.);
#342=EDGE_CURVE('',#463,#461,#551,.T.);
#343=EDGE_CURVE('',#464,#462,#552,.T.);
#344=EDGE_CURVE('',#465,#464,#553,.T.);
#345=EDGE_CURVE('',#465,#463,#554,.T.);
#346=EDGE_CURVE('',#466,#464,#555,.T.);
#347=EDGE_CURVE('',#467,#466,#556,.T.);
#348=EDGE_CURVE('',#467,#465,#557,.T.);
#349=EDGE_CURVE('',#468,#466,#558,.T.);
#350=EDGE_CURVE('',#469,#468,#559,.T.);
#351=EDGE_CURVE('',#469,#467,#560,.T.);
#352=EDGE_CURVE('',#470,#468,#18,.T.);
#353=EDGE_CURVE('',#471,#470,#561,.T.);
#354=EDGE_CURVE('',#471,#469,#19,.T.);
#355=EDGE_CURVE('',#472,#470,#562,.T.);
#356=EDGE_CURVE('',#473,#472,#563,.T.);
#357=EDGE_CURVE('',#473,#471,#564,.T.);
#358=EDGE_CURVE('',#474,#472,#565,.T.);
#359=EDGE_CURVE('',#475,#474,#566,.T.);
#360=EDGE_CURVE('',#475,#473,#567,.T.);
#361=EDGE_CURVE('',#476,#477,#568,.T.);
#362=EDGE_CURVE('',#478,#477,#569,.T.);
#363=EDGE_CURVE('',#479,#478,#570,.T.);
#364=EDGE_CURVE('',#479,#476,#571,.T.);
#365=EDGE_CURVE('',#477,#480,#20,.T.);
#366=EDGE_CURVE('',#481,#480,#572,.T.);
#367=EDGE_CURVE('',#478,#481,#21,.T.);
#368=EDGE_CURVE('',#480,#482,#573,.T.);
#369=EDGE_CURVE('',#483,#482,#574,.T.);
#370=EDGE_CURVE('',#481,#483,#575,.T.);
#371=EDGE_CURVE('',#482,#484,#576,.T.);
#372=EDGE_CURVE('',#485,#484,#577,.T.);
#373=EDGE_CURVE('',#483,#485,#578,.T.);
#374=EDGE_CURVE('',#484,#486,#22,.T.);
#375=EDGE_CURVE('',#487,#486,#579,.T.);
#376=EDGE_CURVE('',#485,#487,#23,.T.);
#377=EDGE_CURVE('',#486,#488,#580,.T.);
#378=EDGE_CURVE('',#489,#488,#581,.T.);
#379=EDGE_CURVE('',#487,#489,#582,.T.);
#380=EDGE_CURVE('',#488,#490,#583,.T.);
#381=EDGE_CURVE('',#491,#490,#584,.T.);
#382=EDGE_CURVE('',#489,#491,#585,.T.);
#383=EDGE_CURVE('',#490,#492,#586,.T.);
#384=EDGE_CURVE('',#493,#492,#587,.T.);
#385=EDGE_CURVE('',#491,#493,#588,.T.);
#386=EDGE_CURVE('',#492,#494,#589,.T.);
#387=EDGE_CURVE('',#495,#494,#590,.T.);
#388=EDGE_CURVE('',#493,#495,#591,.T.);
#389=EDGE_CURVE('',#494,#496,#24,.T.);
#390=EDGE_CURVE('',#497,#496,#592,.T.);
#391=EDGE_CURVE('',#495,#497,#25,.T.);
#392=EDGE_CURVE('',#496,#498,#593,.T.);
#393=EDGE_CURVE('',#499,#498,#594,.T.);
#394=EDGE_CURVE('',#497,#499,#595,.T.);
#395=EDGE_CURVE('',#498,#500,#596,.T.);
#396=EDGE_CURVE('',#501,#500,#597,.T.);
#397=EDGE_CURVE('',#499,#501,#598,.T.);
#398=EDGE_CURVE('',#500,#502,#599,.T.);
#399=EDGE_CURVE('',#503,#502,#600,.T.);
#400=EDGE_CURVE('',#501,#503,#601,.T.);
#401=EDGE_CURVE('',#502,#504,#26,.T.);
#402=EDGE_CURVE('',#505,#504,#602,.T.);
#403=EDGE_CURVE('',#503,#505,#27,.T.);
#404=EDGE_CURVE('',#504,#506,#603,.T.);
#405=EDGE_CURVE('',#507,#506,#604,.T.);
#406=EDGE_CURVE('',#505,#507,#605,.T.);
#407=EDGE_CURVE('',#506,#476,#28,.T.);
#408=EDGE_CURVE('',#507,#479,#29,.T.);
#409=EDGE_CURVE('',#445,#474,#30,.T.);
#410=EDGE_CURVE('',#447,#475,#31,.T.);
#411=EDGE_CURVE('',#508,#509,#606,.T.);
#412=EDGE_CURVE('',#509,#510,#32,.T.);
#413=EDGE_CURVE('',#510,#511,#607,.T.);
#414=EDGE_CURVE('',#511,#512,#608,.T.);
#415=EDGE_CURVE('',#512,#513,#33,.T.);
#416=EDGE_CURVE('',#513,#514,#34,.T.);
#417=EDGE_CURVE('',#514,#515,#609,.T.);
#418=EDGE_CURVE('',#515,#516,#610,.T.);
#419=EDGE_CURVE('',#516,#517,#35,.T.);
#420=EDGE_CURVE('',#517,#518,#611,.T.);
#421=EDGE_CURVE('',#518,#508,#36,.T.);
#422=EDGE_CURVE('',#519,#520,#612,.T.);
#423=EDGE_CURVE('',#521,#519,#37,.T.);
#424=EDGE_CURVE('',#522,#521,#613,.T.);
#425=EDGE_CURVE('',#523,#522,#38,.T.);
#426=EDGE_CURVE('',#524,#523,#614,.T.);
#427=EDGE_CURVE('',#525,#524,#615,.T.);
#428=EDGE_CURVE('',#526,#525,#39,.T.);
#429=EDGE_CURVE('',#527,#526,#40,.T.);
#430=EDGE_CURVE('',#528,#527,#616,.T.);
#431=EDGE_CURVE('',#529,#528,#617,.T.);
#432=EDGE_CURVE('',#520,#529,#41,.T.);
#433=EDGE_CURVE('',#509,#520,#618,.T.);
#434=EDGE_CURVE('',#508,#519,#619,.T.);
#435=EDGE_CURVE('',#510,#529,#620,.T.);
#436=EDGE_CURVE('',#511,#528,#621,.T.);
#437=EDGE_CURVE('',#512,#527,#622,.T.);
#438=EDGE_CURVE('',#513,#526,#623,.T.);
#439=EDGE_CURVE('',#514,#525,#624,.T.);
#440=EDGE_CURVE('',#515,#524,#625,.T.);
#441=EDGE_CURVE('',#516,#523,#626,.T.);
#442=EDGE_CURVE('',#517,#522,#627,.T.);
#443=EDGE_CURVE('',#518,#521,#628,.T.);
#444=VERTEX_POINT('',#1248);
#445=VERTEX_POINT('',#1249);
#446=VERTEX_POINT('',#1251);
#447=VERTEX_POINT('',#1253);
#448=VERTEX_POINT('',#1257);
#449=VERTEX_POINT('',#1259);
#450=VERTEX_POINT('',#1263);
#451=VERTEX_POINT('',#1265);
#452=VERTEX_POINT('',#1269);
#453=VERTEX_POINT('',#1271);
#454=VERTEX_POINT('',#1275);
#455=VERTEX_POINT('',#1277);
#456=VERTEX_POINT('',#1281);
#457=VERTEX_POINT('',#1283);
#458=VERTEX_POINT('',#1287);
#459=VERTEX_POINT('',#1289);
#460=VERTEX_POINT('',#1293);
#461=VERTEX_POINT('',#1295);
#462=VERTEX_POINT('',#1299);
#463=VERTEX_POINT('',#1301);
#464=VERTEX_POINT('',#1305);
#465=VERTEX_POINT('',#1307);
#466=VERTEX_POINT('',#1311);
#467=VERTEX_POINT('',#1313);
#468=VERTEX_POINT('',#1317);
#469=VERTEX_POINT('',#1319);
#470=VERTEX_POINT('',#1323);
#471=VERTEX_POINT('',#1325);
#472=VERTEX_POINT('',#1329);
#473=VERTEX_POINT('',#1331);
#474=VERTEX_POINT('',#1335);
#475=VERTEX_POINT('',#1337);
#476=VERTEX_POINT('',#1341);
#477=VERTEX_POINT('',#1342);
#478=VERTEX_POINT('',#1344);
#479=VERTEX_POINT('',#1346);
#480=VERTEX_POINT('',#1350);
#481=VERTEX_POINT('',#1352);
#482=VERTEX_POINT('',#1356);
#483=VERTEX_POINT('',#1358);
#484=VERTEX_POINT('',#1362);
#485=VERTEX_POINT('',#1364);
#486=VERTEX_POINT('',#1368);
#487=VERTEX_POINT('',#1370);
#488=VERTEX_POINT('',#1374);
#489=VERTEX_POINT('',#1376);
#490=VERTEX_POINT('',#1380);
#491=VERTEX_POINT('',#1382);
#492=VERTEX_POINT('',#1386);
#493=VERTEX_POINT('',#1388);
#494=VERTEX_POINT('',#1392);
#495=VERTEX_POINT('',#1394);
#496=VERTEX_POINT('',#1398);
#497=VERTEX_POINT('',#1400);
#498=VERTEX_POINT('',#1404);
#499=VERTEX_POINT('',#1406);
#500=VERTEX_POINT('',#1410);
#501=VERTEX_POINT('',#1412);
#502=VERTEX_POINT('',#1416);
#503=VERTEX_POINT('',#1418);
#504=VERTEX_POINT('',#1422);
#505=VERTEX_POINT('',#1424);
#506=VERTEX_POINT('',#1428);
#507=VERTEX_POINT('',#1430);
#508=VERTEX_POINT('',#1441);
#509=VERTEX_POINT('',#1442);
#510=VERTEX_POINT('',#1444);
#511=VERTEX_POINT('',#1446);
#512=VERTEX_POINT('',#1448);
#513=VERTEX_POINT('',#1450);
#514=VERTEX_POINT('',#1452);
#515=VERTEX_POINT('',#1454);
#516=VERTEX_POINT('',#1456);
#517=VERTEX_POINT('',#1458);
#518=VERTEX_POINT('',#1460);
#519=VERTEX_POINT('',#1464);
#520=VERTEX_POINT('',#1465);
#521=VERTEX_POINT('',#1467);
#522=VERTEX_POINT('',#1469);
#523=VERTEX_POINT('',#1471);
#524=VERTEX_POINT('',#1473);
#525=VERTEX_POINT('',#1475);
#526=VERTEX_POINT('',#1477);
#527=VERTEX_POINT('',#1479);
#528=VERTEX_POINT('',#1481);
#529=VERTEX_POINT('',#1483);
#530=LINE('',#1247,#629);
#531=LINE('',#1250,#630);
#532=LINE('',#1252,#631);
#533=LINE('',#1254,#632);
#534=LINE('',#1258,#633);
#535=LINE('',#1262,#634);
#536=LINE('',#1264,#635);
#537=LINE('',#1266,#636);
#538=LINE('',#1270,#637);
#539=LINE('',#1274,#638);
#540=LINE('',#1276,#639);
#541=LINE('',#1278,#640);
#542=LINE('',#1280,#641);
#543=LINE('',#1282,#642);
#544=LINE('',#1284,#643);
#545=LINE('',#1286,#644);
#546=LINE('',#1288,#645);
#547=LINE('',#1290,#646);
#548=LINE('',#1294,#647);
#549=LINE('',#1298,#648);
#550=LINE('',#1300,#649);
#551=LINE('',#1302,#650);
#552=LINE('',#1304,#651);
#553=LINE('',#1306,#652);
#554=LINE('',#1308,#653);
#555=LINE('',#1310,#654);
#556=LINE('',#1312,#655);
#557=LINE('',#1314,#656);
#558=LINE('',#1316,#657);
#559=LINE('',#1318,#658);
#560=LINE('',#1320,#659);
#561=LINE('',#1324,#660);
#562=LINE('',#1328,#661);
#563=LINE('',#1330,#662);
#564=LINE('',#1332,#663);
#565=LINE('',#1334,#664);
#566=LINE('',#1336,#665);
#567=LINE('',#1338,#666);
#568=LINE('',#1340,#667);
#569=LINE('',#1343,#668);
#570=LINE('',#1345,#669);
#571=LINE('',#1347,#670);
#572=LINE('',#1351,#671);
#573=LINE('',#1355,#672);
#574=LINE('',#1357,#673);
#575=LINE('',#1359,#674);
#576=LINE('',#1361,#675);
#577=LINE('',#1363,#676);
#578=LINE('',#1365,#677);
#579=LINE('',#1369,#678);
#580=LINE('',#1373,#679);
#581=LINE('',#1375,#680);
#582=LINE('',#1377,#681);
#583=LINE('',#1379,#682);
#584=LINE('',#1381,#683);
#585=LINE('',#1383,#684);
#586=LINE('',#1385,#685);
#587=LINE('',#1387,#686);
#588=LINE('',#1389,#687);
#589=LINE('',#1391,#688);
#590=LINE('',#1393,#689);
#591=LINE('',#1395,#690);
#592=LINE('',#1399,#691);
#593=LINE('',#1403,#692);
#594=LINE('',#1405,#693);
#595=LINE('',#1407,#694);
#596=LINE('',#1409,#695);
#597=LINE('',#1411,#696);
#598=LINE('',#1413,#697);
#599=LINE('',#1415,#698);
#600=LINE('',#1417,#699);
#601=LINE('',#1419,#700);
#602=LINE('',#1423,#701);
#603=LINE('',#1427,#702);
#604=LINE('',#1429,#703);
#605=LINE('',#1431,#704);
#606=LINE('',#1440,#705);
#607=LINE('',#1445,#706);
#608=LINE('',#1447,#707);
#609=LINE('',#1453,#708);
#610=LINE('',#1455,#709);
#611=LINE('',#1459,#710);
#612=LINE('',#1463,#711);
#613=LINE('',#1468,#712);
#614=LINE('',#1472,#713);
#615=LINE('',#1474,#714);
#616=LINE('',#1480,#715);
#617=LINE('',#1482,#716);
#618=LINE('',#1486,#717);
#619=LINE('',#1487,#718);
#620=LINE('',#1489,#719);
#621=LINE('',#1491,#720);
#622=LINE('',#1493,#721);
#623=LINE('',#1495,#722);
#624=LINE('',#1497,#723);
#625=LINE('',#1499,#724);
#626=LINE('',#1501,#725);
#627=LINE('',#1503,#726);
#628=LINE('',#1505,#727);
#629=VECTOR('',#996,1.);
#630=VECTOR('',#997,1.);
#631=VECTOR('',#998,1.);
#632=VECTOR('',#999,1.);
#633=VECTOR('',#1004,1.);
#634=VECTOR('',#1009,1.);
#635=VECTOR('',#1010,1.);
#636=VECTOR('',#1011,1.);
#637=VECTOR('',#1016,1.);
#638=VECTOR('',#1021,1.);
#639=VECTOR('',#1022,1.);
#640=VECTOR('',#1023,1.);
#641=VECTOR('',#1026,1.);
#642=VECTOR('',#1027,1.);
#643=VECTOR('',#1028,1.);
#644=VECTOR('',#1031,1.);
#645=VECTOR('',#1032,1.);
#646=VECTOR('',#1033,1.);
#647=VECTOR('',#1038,1.);
#648=VECTOR('',#1043,1.);
#649=VECTOR('',#1044,1.);
#650=VECTOR('',#1045,1.);
#651=VECTOR('',#1048,1.);
#652=VECTOR('',#1049,1.);
#653=VECTOR('',#1050,1.);
#654=VECTOR('',#1053,1.);
#655=VECTOR('',#1054,1.);
#656=VECTOR('',#1055,1.);
#657=VECTOR('',#1058,1.);
#658=VECTOR('',#1059,1.);
#659=VECTOR('',#1060,1.);
#660=VECTOR('',#1065,1.);
#661=VECTOR('',#1070,1.);
#662=VECTOR('',#1071,1.);
#663=VECTOR('',#1072,1.);
#664=VECTOR('',#1075,1.);
#665=VECTOR('',#1076,1.);
#666=VECTOR('',#1077,1.);
#667=VECTOR('',#1080,1.);
#668=VECTOR('',#1081,1.);
#669=VECTOR('',#1082,1.);
#670=VECTOR('',#1083,1.);
#671=VECTOR('',#1088,1.);
#672=VECTOR('',#1093,1.);
#673=VECTOR('',#1094,1.);
#674=VECTOR('',#1095,1.);
#675=VECTOR('',#1098,1.);
#676=VECTOR('',#1099,1.);
#677=VECTOR('',#1100,1.);
#678=VECTOR('',#1105,1.);
#679=VECTOR('',#1110,1.);
#680=VECTOR('',#1111,1.);
#681=VECTOR('',#1112,1.);
#682=VECTOR('',#1115,1.);
#683=VECTOR('',#1116,1.);
#684=VECTOR('',#1117,1.);
#685=VECTOR('',#1120,1.);
#686=VECTOR('',#1121,1.);
#687=VECTOR('',#1122,1.);
#688=VECTOR('',#1125,1.);
#689=VECTOR('',#1126,1.);
#690=VECTOR('',#1127,1.);
#691=VECTOR('',#1132,1.);
#692=VECTOR('',#1137,1.);
#693=VECTOR('',#1138,1.);
#694=VECTOR('',#1139,1.);
#695=VECTOR('',#1142,1.);
#696=VECTOR('',#1143,1.);
#697=VECTOR('',#1144,1.);
#698=VECTOR('',#1147,1.);
#699=VECTOR('',#1148,1.);
#700=VECTOR('',#1149,1.);
#701=VECTOR('',#1154,1.);
#702=VECTOR('',#1159,1.);
#703=VECTOR('',#1160,1.);
#704=VECTOR('',#1161,1.);
#705=VECTOR('',#1178,1.);
#706=VECTOR('',#1181,1.);
#707=VECTOR('',#1182,1.);
#708=VECTOR('',#1187,1.);
#709=VECTOR('',#1188,1.);
#710=VECTOR('',#1191,1.);
#711=VECTOR('',#1196,1.);
#712=VECTOR('',#1199,1.);
#713=VECTOR('',#1202,1.);
#714=VECTOR('',#1203,1.);
#715=VECTOR('',#1208,1.);
#716=VECTOR('',#1209,1.);
#717=VECTOR('',#1214,1.);
#718=VECTOR('',#1215,1.);
#719=VECTOR('',#1218,1.);
#720=VECTOR('',#1221,1.);
#721=VECTOR('',#1224,1.);
#722=VECTOR('',#1227,1.);
#723=VECTOR('',#1230,1.);
#724=VECTOR('',#1233,1.);
#725=VECTOR('',#1236,1.);
#726=VECTOR('',#1239,1.);
#727=VECTOR('',#1242,1.);
#728=EDGE_LOOP('',(#57,#58,#59,#60));
#729=EDGE_LOOP('',(#61,#62,#63,#64));
#730=EDGE_LOOP('',(#65,#66,#67,#68));
#731=EDGE_LOOP('',(#69,#70,#71,#72));
#732=EDGE_LOOP('',(#73,#74,#75,#76));
#733=EDGE_LOOP('',(#77,#78,#79,#80));
#734=EDGE_LOOP('',(#81,#82,#83,#84));
#735=EDGE_LOOP('',(#85,#86,#87,#88));
#736=EDGE_LOOP('',(#89,#90,#91,#92));
#737=EDGE_LOOP('',(#93,#94,#95,#96));
#738=EDGE_LOOP('',(#97,#98,#99,#100));
#739=EDGE_LOOP('',(#101,#102,#103,#104));
#740=EDGE_LOOP('',(#105,#106,#107,#108));
#741=EDGE_LOOP('',(#109,#110,#111,#112));
#742=EDGE_LOOP('',(#113,#114,#115,#116));
#743=EDGE_LOOP('',(#117,#118,#119,#120));
#744=EDGE_LOOP('',(#121,#122,#123,#124));
#745=EDGE_LOOP('',(#125,#126,#127,#128));
#746=EDGE_LOOP('',(#129,#130,#131,#132));
#747=EDGE_LOOP('',(#133,#134,#135,#136));
#748=EDGE_LOOP('',(#137,#138,#139,#140));
#749=EDGE_LOOP('',(#141,#142,#143,#144));
#750=EDGE_LOOP('',(#145,#146,#147,#148));
#751=EDGE_LOOP('',(#149,#150,#151,#152));
#752=EDGE_LOOP('',(#153,#154,#155,#156));
#753=EDGE_LOOP('',(#157,#158,#159,#160));
#754=EDGE_LOOP('',(#161,#162,#163,#164));
#755=EDGE_LOOP('',(#165,#166,#167,#168));
#756=EDGE_LOOP('',(#169,#170,#171,#172));
#757=EDGE_LOOP('',(#173,#174,#175,#176));
#758=EDGE_LOOP('',(#177,#178,#179,#180));
#759=EDGE_LOOP('',(#181,#182,#183,#184));
#760=EDGE_LOOP('',(#185,#186,#187,#188,#189,#190,#191,#192,#193,#194,#195,
#196,#197,#198,#199,#200));
#761=EDGE_LOOP('',(#201,#202,#203,#204,#205,#206,#207,#208,#209,#210,#211,
#212,#213,#214,#215,#216));
#762=EDGE_LOOP('',(#217,#218,#219,#220,#221,#222,#223,#224,#225,#226,#227,
#228,#229,#230,#231,#232));
#763=EDGE_LOOP('',(#233,#234,#235,#236,#237,#238,#239,#240,#241,#242,#243));
#764=EDGE_LOOP('',(#244,#245,#246,#247,#248,#249,#250,#251,#252,#253,#254,
#255,#256,#257,#258,#259));
#765=EDGE_LOOP('',(#260,#261,#262,#263,#264,#265,#266,#267,#268,#269,#270));
#766=EDGE_LOOP('',(#271,#272,#273,#274));
#767=EDGE_LOOP('',(#275,#276,#277,#278));
#768=EDGE_LOOP('',(#279,#280,#281,#282));
#769=EDGE_LOOP('',(#283,#284,#285,#286));
#770=EDGE_LOOP('',(#287,#288,#289,#290));
#771=EDGE_LOOP('',(#291,#292,#293,#294));
#772=EDGE_LOOP('',(#295,#296,#297,#298));
#773=EDGE_LOOP('',(#299,#300,#301,#302));
#774=EDGE_LOOP('',(#303,#304,#305,#306));
#775=EDGE_LOOP('',(#307,#308,#309,#310));
#776=EDGE_LOOP('',(#311,#312,#313,#314));
#777=FACE_BOUND('',#728,.T.);
#778=FACE_BOUND('',#729,.T.);
#779=FACE_BOUND('',#730,.T.);
#780=FACE_BOUND('',#731,.T.);
#781=FACE_BOUND('',#732,.T.);
#782=FACE_BOUND('',#733,.T.);
#783=FACE_BOUND('',#734,.T.);
#784=FACE_BOUND('',#735,.T.);
#785=FACE_BOUND('',#736,.T.);
#786=FACE_BOUND('',#737,.T.);
#787=FACE_BOUND('',#738,.T.);
#788=FACE_BOUND('',#739,.T.);
#789=FACE_BOUND('',#740,.T.);
#790=FACE_BOUND('',#741,.T.);
#791=FACE_BOUND('',#742,.T.);
#792=FACE_BOUND('',#743,.T.);
#793=FACE_BOUND('',#744,.T.);
#794=FACE_BOUND('',#745,.T.);
#795=FACE_BOUND('',#746,.T.);
#796=FACE_BOUND('',#747,.T.);
#797=FACE_BOUND('',#748,.T.);
#798=FACE_BOUND('',#749,.T.);
#799=FACE_BOUND('',#750,.T.);
#800=FACE_BOUND('',#751,.T.);
#801=FACE_BOUND('',#752,.T.);
#802=FACE_BOUND('',#753,.T.);
#803=FACE_BOUND('',#754,.T.);
#804=FACE_BOUND('',#755,.T.);
#805=FACE_BOUND('',#756,.T.);
#806=FACE_BOUND('',#757,.T.);
#807=FACE_BOUND('',#758,.T.);
#808=FACE_BOUND('',#759,.T.);
#809=FACE_BOUND('',#760,.T.);
#810=FACE_BOUND('',#761,.T.);
#811=FACE_BOUND('',#762,.T.);
#812=FACE_BOUND('',#763,.T.);
#813=FACE_BOUND('',#764,.T.);
#814=FACE_BOUND('',#765,.T.);
#815=FACE_BOUND('',#766,.T.);
#816=FACE_BOUND('',#767,.T.);
#817=FACE_BOUND('',#768,.T.);
#818=FACE_BOUND('',#769,.T.);
#819=FACE_BOUND('',#770,.T.);
#820=FACE_BOUND('',#771,.T.);
#821=FACE_BOUND('',#772,.T.);
#822=FACE_BOUND('',#773,.T.);
#823=FACE_BOUND('',#774,.T.);
#824=FACE_BOUND('',#775,.T.);
#825=FACE_BOUND('',#776,.T.);
#826=PLANE('',#916);
#827=PLANE('',#920);
#828=PLANE('',#924);
#829=PLANE('',#925);
#830=PLANE('',#926);
#831=PLANE('',#930);
#832=PLANE('',#931);
#833=PLANE('',#932);
#834=PLANE('',#933);
#835=PLANE('',#937);
#836=PLANE('',#938);
#837=PLANE('',#939);
#838=PLANE('',#943);
#839=PLANE('',#944);
#840=PLANE('',#948);
#841=PLANE('',#949);
#842=PLANE('',#950);
#843=PLANE('',#951);
#844=PLANE('',#955);
#845=PLANE('',#956);
#846=PLANE('',#957);
#847=PLANE('',#961);
#848=PLANE('',#968);
#849=PLANE('',#969);
#850=PLANE('',#975);
#851=PLANE('',#981);
#852=PLANE('',#983);
#853=PLANE('',#984);
#854=PLANE('',#987);
#855=PLANE('',#988);
#856=PLANE('',#990);
#857=ADVANCED_FACE('',(#777),#826,.T.);
#858=ADVANCED_FACE('',(#778),#42,.F.);
#859=ADVANCED_FACE('',(#779),#827,.T.);
#860=ADVANCED_FACE('',(#780),#43,.F.);
#861=ADVANCED_FACE('',(#781),#828,.T.);
#862=ADVANCED_FACE('',(#782),#829,.T.);
#863=ADVANCED_FACE('',(#783),#830,.T.);
#864=ADVANCED_FACE('',(#784),#44,.F.);
#865=ADVANCED_FACE('',(#785),#831,.T.);
#866=ADVANCED_FACE('',(#786),#832,.T.);
#867=ADVANCED_FACE('',(#787),#833,.T.);
#868=ADVANCED_FACE('',(#788),#834,.T.);
#869=ADVANCED_FACE('',(#789),#45,.F.);
#870=ADVANCED_FACE('',(#790),#835,.T.);
#871=ADVANCED_FACE('',(#791),#836,.T.);
#872=ADVANCED_FACE('',(#792),#837,.F.);
#873=ADVANCED_FACE('',(#793),#46,.T.);
#874=ADVANCED_FACE('',(#794),#838,.F.);
#875=ADVANCED_FACE('',(#795),#839,.F.);
#876=ADVANCED_FACE('',(#796),#47,.T.);
#877=ADVANCED_FACE('',(#797),#840,.F.);
#878=ADVANCED_FACE('',(#798),#841,.F.);
#879=ADVANCED_FACE('',(#799),#842,.F.);
#880=ADVANCED_FACE('',(#800),#843,.F.);
#881=ADVANCED_FACE('',(#801),#48,.T.);
#882=ADVANCED_FACE('',(#802),#844,.F.);
#883=ADVANCED_FACE('',(#803),#845,.F.);
#884=ADVANCED_FACE('',(#804),#846,.F.);
#885=ADVANCED_FACE('',(#805),#49,.T.);
#886=ADVANCED_FACE('',(#806),#847,.F.);
#887=ADVANCED_FACE('',(#807),#50,.T.);
#888=ADVANCED_FACE('',(#808),#51,.F.);
#889=ADVANCED_FACE('',(#809,#810),#848,.F.);
#890=ADVANCED_FACE('',(#811,#812),#849,.T.);
#891=ADVANCED_FACE('',(#813,#814),#850,.F.);
#892=ADVANCED_FACE('',(#815),#851,.F.);
#893=ADVANCED_FACE('',(#816),#52,.T.);
#894=ADVANCED_FACE('',(#817),#852,.F.);
#895=ADVANCED_FACE('',(#818),#853,.F.);
#896=ADVANCED_FACE('',(#819),#53,.T.);
#897=ADVANCED_FACE('',(#820),#54,.T.);
#898=ADVANCED_FACE('',(#821),#854,.F.);
#899=ADVANCED_FACE('',(#822),#855,.F.);
#900=ADVANCED_FACE('',(#823),#55,.T.);
#901=ADVANCED_FACE('',(#824),#856,.F.);
#902=ADVANCED_FACE('',(#825),#56,.T.);
#903=CLOSED_SHELL('',(#857,#858,#859,#860,#861,#862,#863,#864,#865,#866,
#867,#868,#869,#870,#871,#872,#873,#874,#875,#876,#877,#878,#879,#880,#881,
#882,#883,#884,#885,#886,#887,#888,#889,#890,#891,#892,#893,#894,#895,#896,
#897,#898,#899,#900,#901,#902));
#904=STYLED_ITEM('',(#905),#912);
#905=PRESENTATION_STYLE_ASSIGNMENT((#906));
#906=SURFACE_STYLE_USAGE(.BOTH.,#907);
#907=SURFACE_SIDE_STYLE('',(#908));
#908=SURFACE_STYLE_FILL_AREA(#909);
#909=FILL_AREA_STYLE('',(#910));
#910=FILL_AREA_STYLE_COLOUR('',#911);
#911=COLOUR_RGB('',0.615686274509804,0.811764705882353,0.929411764705882);
#912=MANIFOLD_SOLID_BREP('Part 1',#903);
#913=SHAPE_DEFINITION_REPRESENTATION(#1513,#914);
#914=SHAPE_REPRESENTATION('Part 1',(#915),#1508);
#915=AXIS2_PLACEMENT_3D('',#1245,#992,#993);
#916=AXIS2_PLACEMENT_3D('',#1246,#994,#995);
#917=AXIS2_PLACEMENT_3D('',#1255,#1000,#1001);
#918=AXIS2_PLACEMENT_3D('',#1256,#1002,#1003);
#919=AXIS2_PLACEMENT_3D('',#1260,#1005,#1006);
#920=AXIS2_PLACEMENT_3D('',#1261,#1007,#1008);
#921=AXIS2_PLACEMENT_3D('',#1267,#1012,#1013);
#922=AXIS2_PLACEMENT_3D('',#1268,#1014,#1015);
#923=AXIS2_PLACEMENT_3D('',#1272,#1017,#1018);
#924=AXIS2_PLACEMENT_3D('',#1273,#1019,#1020);
#925=AXIS2_PLACEMENT_3D('',#1279,#1024,#1025);
#926=AXIS2_PLACEMENT_3D('',#1285,#1029,#1030);
#927=AXIS2_PLACEMENT_3D('',#1291,#1034,#1035);
#928=AXIS2_PLACEMENT_3D('',#1292,#1036,#1037);
#929=AXIS2_PLACEMENT_3D('',#1296,#1039,#1040);
#930=AXIS2_PLACEMENT_3D('',#1297,#1041,#1042);
#931=AXIS2_PLACEMENT_3D('',#1303,#1046,#1047);
#932=AXIS2_PLACEMENT_3D('',#1309,#1051,#1052);
#933=AXIS2_PLACEMENT_3D('',#1315,#1056,#1057);
#934=AXIS2_PLACEMENT_3D('',#1321,#1061,#1062);
#935=AXIS2_PLACEMENT_3D('',#1322,#1063,#1064);
#936=AXIS2_PLACEMENT_3D('',#1326,#1066,#1067);
#937=AXIS2_PLACEMENT_3D('',#1327,#1068,#1069);
#938=AXIS2_PLACEMENT_3D('',#1333,#1073,#1074);
#939=AXIS2_PLACEMENT_3D('',#1339,#1078,#1079);
#940=AXIS2_PLACEMENT_3D('',#1348,#1084,#1085);
#941=AXIS2_PLACEMENT_3D('',#1349,#1086,#1087);
#942=AXIS2_PLACEMENT_3D('',#1353,#1089,#1090);
#943=AXIS2_PLACEMENT_3D('',#1354,#1091,#1092);
#944=AXIS2_PLACEMENT_3D('',#1360,#1096,#1097);
#945=AXIS2_PLACEMENT_3D('',#1366,#1101,#1102);
#946=AXIS2_PLACEMENT_3D('',#1367,#1103,#1104);
#947=AXIS2_PLACEMENT_3D('',#1371,#1106,#1107);
#948=AXIS2_PLACEMENT_3D('',#1372,#1108,#1109);
#949=AXIS2_PLACEMENT_3D('',#1378,#1113,#1114);
#950=AXIS2_PLACEMENT_3D('',#1384,#1118,#1119);
#951=AXIS2_PLACEMENT_3D('',#1390,#1123,#1124);
#952=AXIS2_PLACEMENT_3D('',#1396,#1128,#1129);
#953=AXIS2_PLACEMENT_3D('',#1397,#1130,#1131);
#954=AXIS2_PLACEMENT_3D('',#1401,#1133,#1134);
#955=AXIS2_PLACEMENT_3D('',#1402,#1135,#1136);
#956=AXIS2_PLACEMENT_3D('',#1408,#1140,#1141);
#957=AXIS2_PLACEMENT_3D('',#1414,#1145,#1146);
#958=AXIS2_PLACEMENT_3D('',#1420,#1150,#1151);
#959=AXIS2_PLACEMENT_3D('',#1421,#1152,#1153);
#960=AXIS2_PLACEMENT_3D('',#1425,#1155,#1156);
#961=AXIS2_PLACEMENT_3D('',#1426,#1157,#1158);
#962=AXIS2_PLACEMENT_3D('',#1432,#1162,#1163);
#963=AXIS2_PLACEMENT_3D('',#1433,#1164,#1165);
#964=AXIS2_PLACEMENT_3D('',#1434,#1166,#1167);
#965=AXIS2_PLACEMENT_3D('',#1435,#1168,#1169);
#966=AXIS2_PLACEMENT_3D('',#1436,#1170,#1171);
#967=AXIS2_PLACEMENT_3D('',#1437,#1172,#1173);
#968=AXIS2_PLACEMENT_3D('',#1438,#1174,#1175);
#969=AXIS2_PLACEMENT_3D('',#1439,#1176,#1177);
#970=AXIS2_PLACEMENT_3D('',#1443,#1179,#1180);
#971=AXIS2_PLACEMENT_3D('',#1449,#1183,#1184);
#972=AXIS2_PLACEMENT_3D('',#1451,#1185,#1186);
#973=AXIS2_PLACEMENT_3D('',#1457,#1189,#1190);
#974=AXIS2_PLACEMENT_3D('',#1461,#1192,#1193);
#975=AXIS2_PLACEMENT_3D('',#1462,#1194,#1195);
#976=AXIS2_PLACEMENT_3D('',#1466,#1197,#1198);
#977=AXIS2_PLACEMENT_3D('',#1470,#1200,#1201);
#978=AXIS2_PLACEMENT_3D('',#1476,#1204,#1205);
#979=AXIS2_PLACEMENT_3D('',#1478,#1206,#1207);
#980=AXIS2_PLACEMENT_3D('',#1484,#1210,#1211);
#981=AXIS2_PLACEMENT_3D('',#1485,#1212,#1213);
#982=AXIS2_PLACEMENT_3D('',#1488,#1216,#1217);
#983=AXIS2_PLACEMENT_3D('',#1490,#1219,#1220);
#984=AXIS2_PLACEMENT_3D('',#1492,#1222,#1223);
#985=AXIS2_PLACEMENT_3D('',#1494,#1225,#1226);
#986=AXIS2_PLACEMENT_3D('',#1496,#1228,#1229);
#987=AXIS2_PLACEMENT_3D('',#1498,#1231,#1232);
#988=AXIS2_PLACEMENT_3D('',#1500,#1234,#1235);
#989=AXIS2_PLACEMENT_3D('',#1502,#1237,#1238);
#990=AXIS2_PLACEMENT_3D('',#1504,#1240,#1241);
#991=AXIS2_PLACEMENT_3D('',#1506,#1243,#1244);
#992=DIRECTION('',(0.,0.,1.));
#993=DIRECTION('',(1.,0.,0.));
#994=DIRECTION('',(0.270579844263628,-0.962697537068767,0.));
#995=DIRECTION('',(0.962697537068768,0.270579844263628,0.));
#996=DIRECTION('',(-0.962697537068767,-0.270579844263628,0.));
#997=DIRECTION('',(0.,0.,-1.));
#998=DIRECTION('',(-0.962697537068767,-0.270579844263628,0.));
#999=DIRECTION('',(0.,0.,-1.));
#1000=DIRECTION('',(0.,0.,-1.));
#1001=DIRECTION('',(-1.,0.,0.));
#1002=DIRECTION('',(0.,0.,1.));
#1003=DIRECTION('',(1.,0.,0.));
#1004=DIRECTION('',(0.,0.,-1.));
#1005=DIRECTION('',(0.,0.,1.));
#1006=DIRECTION('',(1.,0.,0.));
#1007=DIRECTION('',(-0.270919873596256,-0.962601902185212,0.));
#1008=DIRECTION('',(0.962601902185212,-0.270919873596256,0.));
#1009=DIRECTION('',(-0.962601902185212,0.270919873596256,0.));
#1010=DIRECTION('',(0.,0.,-1.));
#1011=DIRECTION('',(-0.962601902185212,0.270919873596256,0.));
#1012=DIRECTION('',(0.,0.,-1.));
#1013=DIRECTION('',(-1.,0.,0.));
#1014=DIRECTION('',(0.,0.,1.));
#1015=DIRECTION('',(1.,0.,0.));
#1016=DIRECTION('',(0.,0.,-1.));
#1017=DIRECTION('',(0.,0.,1.));
#1018=DIRECTION('',(1.,0.,0.));
#1019=DIRECTION('',(-0.262788484346902,0.964853466851137,0.));
#1020=DIRECTION('',(-0.964853466851137,-0.262788484346902,0.));
#1021=DIRECTION('',(0.964853466851137,0.262788484346902,0.));
#1022=DIRECTION('',(0.,0.,-1.));
#1023=DIRECTION('',(0.964853466851137,0.262788484346902,0.));
#1024=DIRECTION('',(-1.,0.,0.));
#1025=DIRECTION('',(0.,0.,1.));
#1026=DIRECTION('',(0.,1.,0.));
#1027=DIRECTION('',(0.,0.,-1.));
#1028=DIRECTION('',(0.,1.,0.));
#1029=DIRECTION('',(-0.948270413162966,-0.317463735755343,0.));
#1030=DIRECTION('',(0.317463735755343,-0.948270413162966,0.));
#1031=DIRECTION('',(-0.317463735755343,0.948270413162966,0.));
#1032=DIRECTION('',(0.,0.,-1.));
#1033=DIRECTION('',(-0.317463735755343,0.948270413162966,0.));
#1034=DIRECTION('',(0.,0.,-1.));
#1035=DIRECTION('',(-1.,0.,0.));
#1036=DIRECTION('',(0.,0.,1.));
#1037=DIRECTION('',(1.,0.,0.));
#1038=DIRECTION('',(0.,0.,-1.));
#1039=DIRECTION('',(0.,0.,1.));
#1040=DIRECTION('',(1.,0.,0.));
#1041=DIRECTION('',(0.951494921962374,-0.307664449489726,0.));
#1042=DIRECTION('',(0.307664449489726,0.951494921962374,0.));
#1043=DIRECTION('',(-0.307664449489726,-0.951494921962374,0.));
#1044=DIRECTION('',(0.,0.,-1.));
#1045=DIRECTION('',(-0.307664449489726,-0.951494921962374,0.));
#1046=DIRECTION('',(1.,0.,0.));
#1047=DIRECTION('',(0.,0.,-1.));
#1048=DIRECTION('',(0.,-1.,0.));
#1049=DIRECTION('',(0.,0.,-1.));
#1050=DIRECTION('',(0.,-1.,0.));
#1051=DIRECTION('',(-0.316777905354292,0.948499741001202,0.));
#1052=DIRECTION('',(-0.948499741001202,-0.316777905354292,0.));
#1053=DIRECTION('',(0.948499741001202,0.316777905354292,0.));
#1054=DIRECTION('',(0.,0.,-1.));
#1055=DIRECTION('',(0.948499741001202,0.316777905354292,0.));
#1056=DIRECTION('',(-1.,0.,0.));
#1057=DIRECTION('',(0.,0.,1.));
#1058=DIRECTION('',(0.,1.,0.));
#1059=DIRECTION('',(0.,0.,-1.));
#1060=DIRECTION('',(0.,1.,0.));
#1061=DIRECTION('',(0.,0.,-1.));
#1062=DIRECTION('',(-1.,0.,0.));
#1063=DIRECTION('',(0.,0.,1.));
#1064=DIRECTION('',(1.,0.,0.));
#1065=DIRECTION('',(0.,0.,-1.));
#1066=DIRECTION('',(0.,0.,1.));
#1067=DIRECTION('',(1.,0.,0.));
#1068=DIRECTION('',(1.,0.,0.));
#1069=DIRECTION('',(0.,0.,-1.));
#1070=DIRECTION('',(0.,-1.,0.));
#1071=DIRECTION('',(0.,0.,-1.));
#1072=DIRECTION('',(0.,-1.,0.));
#1073=DIRECTION('',(0.304244830472133,0.952593871033707,0.));
#1074=DIRECTION('',(-0.952593871033707,0.304244830472133,0.));
#1075=DIRECTION('',(0.952593871033707,-0.304244830472133,0.));
#1076=DIRECTION('',(0.,0.,-1.));
#1077=DIRECTION('',(0.952593871033707,-0.304244830472133,0.));
#1078=DIRECTION('',(0.270579844263628,-0.962697537068767,0.));
#1079=DIRECTION('',(0.962697537068768,0.270579844263628,0.));
#1080=DIRECTION('',(-0.962697537068767,-0.270579844263628,0.));
#1081=DIRECTION('',(0.,0.,-1.));
#1082=DIRECTION('',(-0.962697537068767,-0.270579844263628,0.));
#1083=DIRECTION('',(0.,0.,-1.));
#1084=DIRECTION('',(0.,0.,-1.));
#1085=DIRECTION('',(-1.,0.,0.));
#1086=DIRECTION('',(0.,0.,1.));
#1087=DIRECTION('',(1.,0.,0.));
#1088=DIRECTION('',(0.,0.,-1.));
#1089=DIRECTION('',(0.,0.,1.));
#1090=DIRECTION('',(1.,0.,0.));
#1091=DIRECTION('',(0.304244830472133,0.952593871033707,0.));
#1092=DIRECTION('',(-0.952593871033707,0.304244830472133,0.));
#1093=DIRECTION('',(0.952593871033707,-0.304244830472133,0.));
#1094=DIRECTION('',(0.,0.,-1.));
#1095=DIRECTION('',(0.952593871033707,-0.304244830472133,0.));
#1096=DIRECTION('',(1.,0.,0.));
#1097=DIRECTION('',(0.,0.,-1.));
#1098=DIRECTION('',(0.,-1.,0.));
#1099=DIRECTION('',(0.,0.,-1.));
#1100=DIRECTION('',(0.,-1.,0.));
#1101=DIRECTION('',(0.,0.,-1.));
#1102=DIRECTION('',(-1.,0.,0.));
#1103=DIRECTION('',(0.,0.,1.));
#1104=DIRECTION('',(1.,0.,0.));
#1105=DIRECTION('',(0.,0.,-1.));
#1106=DIRECTION('',(0.,0.,1.));
#1107=DIRECTION('',(1.,0.,0.));
#1108=DIRECTION('',(-1.,0.,0.));
#1109=DIRECTION('',(0.,0.,1.));
#1110=DIRECTION('',(0.,1.,0.));
#1111=DIRECTION('',(0.,0.,-1.));
#1112=DIRECTION('',(0.,1.,0.));
#1113=DIRECTION('',(-0.316777905354292,0.948499741001202,0.));
#1114=DIRECTION('',(-0.948499741001202,-0.316777905354292,0.));
#1115=DIRECTION('',(0.948499741001202,0.316777905354292,0.));
#1116=DIRECTION('',(0.,0.,-1.));
#1117=DIRECTION('',(0.948499741001202,0.316777905354292,0.));
#1118=DIRECTION('',(1.,0.,0.));
#1119=DIRECTION('',(0.,0.,-1.));
#1120=DIRECTION('',(0.,-1.,0.));
#1121=DIRECTION('',(0.,0.,-1.));
#1122=DIRECTION('',(0.,-1.,0.));
#1123=DIRECTION('',(0.951494921962374,-0.307664449489726,0.));
#1124=DIRECTION('',(0.307664449489726,0.951494921962374,0.));
#1125=DIRECTION('',(-0.307664449489726,-0.951494921962374,0.));
#1126=DIRECTION('',(0.,0.,-1.));
#1127=DIRECTION('',(-0.307664449489726,-0.951494921962374,0.));
#1128=DIRECTION('',(0.,0.,-1.));
#1129=DIRECTION('',(-1.,0.,0.));
#1130=DIRECTION('',(0.,0.,1.));
#1131=DIRECTION('',(1.,0.,0.));
#1132=DIRECTION('',(0.,0.,-1.));
#1133=DIRECTION('',(0.,0.,1.));
#1134=DIRECTION('',(1.,0.,0.));
#1135=DIRECTION('',(-0.948270413162966,-0.317463735755343,0.));
#1136=DIRECTION('',(0.317463735755343,-0.948270413162966,0.));
#1137=DIRECTION('',(-0.317463735755343,0.948270413162966,0.));
#1138=DIRECTION('',(0.,0.,-1.));
#1139=DIRECTION('',(-0.317463735755343,0.948270413162966,0.));
#1140=DIRECTION('',(-1.,0.,0.));
#1141=DIRECTION('',(0.,0.,1.));
#1142=DIRECTION('',(0.,1.,0.));
#1143=DIRECTION('',(0.,0.,-1.));
#1144=DIRECTION('',(0.,1.,0.));
#1145=DIRECTION('',(-0.262788484346902,0.964853466851137,0.));
#1146=DIRECTION('',(-0.964853466851137,-0.262788484346902,0.));
#1147=DIRECTION('',(0.964853466851137,0.262788484346902,0.));
#1148=DIRECTION('',(0.,0.,-1.));
#1149=DIRECTION('',(0.964853466851137,0.262788484346902,0.));
#1150=DIRECTION('',(0.,0.,-1.));
#1151=DIRECTION('',(-1.,0.,0.));
#1152=DIRECTION('',(0.,0.,1.));
#1153=DIRECTION('',(1.,0.,0.));
#1154=DIRECTION('',(0.,0.,-1.));
#1155=DIRECTION('',(0.,0.,1.));
#1156=DIRECTION('',(1.,0.,0.));
#1157=DIRECTION('',(-0.270919873596256,-0.962601902185212,0.));
#1158=DIRECTION('',(0.962601902185212,-0.270919873596256,0.));
#1159=DIRECTION('',(-0.962601902185212,0.270919873596256,0.));
#1160=DIRECTION('',(0.,0.,-1.));
#1161=DIRECTION('',(-0.962601902185212,0.270919873596256,0.));
#1162=DIRECTION('',(0.,0.,-1.));
#1163=DIRECTION('',(-1.,0.,0.));
#1164=DIRECTION('',(0.,0.,1.));
#1165=DIRECTION('',(1.,0.,0.));
#1166=DIRECTION('',(0.,0.,1.));
#1167=DIRECTION('',(1.,0.,0.));
#1168=DIRECTION('',(0.,0.,-1.));
#1169=DIRECTION('',(-1.,0.,0.));
#1170=DIRECTION('',(0.,0.,1.));
#1171=DIRECTION('',(1.,0.,0.));
#1172=DIRECTION('',(0.,0.,1.));
#1173=DIRECTION('',(1.,0.,0.));
#1174=DIRECTION('',(0.,0.,1.));
#1175=DIRECTION('',(1.,0.,0.));
#1176=DIRECTION('',(0.,0.,1.));
#1177=DIRECTION('',(1.,0.,0.));
#1178=DIRECTION('',(-0.962697537068767,-0.270579844263628,0.));
#1179=DIRECTION('',(0.,0.,1.));
#1180=DIRECTION('',(1.,0.,0.));
#1181=DIRECTION('',(0.952593871033707,-0.304244830472133,0.));
#1182=DIRECTION('',(0.,-1.,0.));
#1183=DIRECTION('',(0.,0.,1.));
#1184=DIRECTION('',(1.,0.,0.));
#1185=DIRECTION('',(0.,0.,1.));
#1186=DIRECTION('',(1.,0.,0.));
#1187=DIRECTION('',(-0.317463735755343,0.948270413162966,0.));
#1188=DIRECTION('',(0.,1.,0.));
#1189=DIRECTION('',(0.,0.,1.));
#1190=DIRECTION('',(1.,0.,0.));
#1191=DIRECTION('',(-0.962601902185212,0.270919873596256,0.));
#1192=DIRECTION('',(0.,0.,1.));
#1193=DIRECTION('',(1.,0.,0.));
#1194=DIRECTION('',(0.,0.,1.));
#1195=DIRECTION('',(1.,0.,0.));
#1196=DIRECTION('',(-0.962697537068767,-0.270579844263628,0.));
#1197=DIRECTION('',(0.,0.,1.));
#1198=DIRECTION('',(1.,0.,0.));
#1199=DIRECTION('',(-0.962601902185212,0.270919873596256,0.));
#1200=DIRECTION('',(0.,0.,1.));
#1201=DIRECTION('',(1.,0.,0.));
#1202=DIRECTION('',(0.,1.,0.));
#1203=DIRECTION('',(-0.317463735755343,0.948270413162966,0.));
#1204=DIRECTION('',(0.,0.,1.));
#1205=DIRECTION('',(1.,0.,0.));
#1206=DIRECTION('',(0.,0.,1.));
#1207=DIRECTION('',(1.,0.,0.));
#1208=DIRECTION('',(0.,-1.,0.));
#1209=DIRECTION('',(0.952593871033707,-0.304244830472133,0.));
#1210=DIRECTION('',(0.,0.,1.));
#1211=DIRECTION('',(1.,0.,0.));
#1212=DIRECTION('',(0.270579844263628,-0.962697537068767,0.));
#1213=DIRECTION('',(0.962697537068767,0.270579844263628,0.));
#1214=DIRECTION('',(0.,0.,-1.));
#1215=DIRECTION('',(0.,0.,-1.));
#1216=DIRECTION('',(0.,0.,-1.));
#1217=DIRECTION('',(-1.,0.,0.));
#1218=DIRECTION('',(0.,0.,-1.));
#1219=DIRECTION('',(0.304244830472133,0.952593871033707,0.));
#1220=DIRECTION('',(-0.952593871033707,0.304244830472133,0.));
#1221=DIRECTION('',(0.,0.,-1.));
#1222=DIRECTION('',(1.,0.,0.));
#1223=DIRECTION('',(0.,0.,-1.));
#1224=DIRECTION('',(0.,0.,-1.));
#1225=DIRECTION('',(0.,0.,-1.));
#1226=DIRECTION('',(-1.,0.,0.));
#1227=DIRECTION('',(0.,0.,-1.));
#1228=DIRECTION('',(0.,0.,-1.));
#1229=DIRECTION('',(-1.,0.,0.));
#1230=DIRECTION('',(0.,0.,-1.));
#1231=DIRECTION('',(-0.948270413162966,-0.317463735755343,0.));
#1232=DIRECTION('',(0.317463735755343,-0.948270413162966,0.));
#1233=DIRECTION('',(0.,0.,-1.));
#1234=DIRECTION('',(-1.,0.,0.));
#1235=DIRECTION('',(0.,0.,1.));
#1236=DIRECTION('',(0.,0.,-1.));
#1237=DIRECTION('',(0.,0.,-1.));
#1238=DIRECTION('',(-1.,0.,0.));
#1239=DIRECTION('',(0.,0.,-1.));
#1240=DIRECTION('',(-0.270919873596256,-0.962601902185212,0.));
#1241=DIRECTION('',(0.962601902185212,-0.270919873596256,0.));
#1242=DIRECTION('',(0.,0.,-1.));
#1243=DIRECTION('',(0.,0.,-1.));
#1244=DIRECTION('',(-1.,0.,0.));
#1245=CARTESIAN_POINT('',(0.,0.,0.));
#1246=CARTESIAN_POINT('',(-0.0179058917565271,0.0357918990775943,0.0127));
#1247=CARTESIAN_POINT('',(-0.0179058917565271,0.0357918990775943,0.));
#1248=CARTESIAN_POINT('',(0.00313275144435467,0.0417051091790199,0.));
#1249=CARTESIAN_POINT('',(-0.0389445349574089,0.0298786889761686,0.));
#1250=CARTESIAN_POINT('',(0.00313275144435467,0.0417051091790199,0.0127));
#1251=CARTESIAN_POINT('',(0.00313275144435467,0.0417051091790199,0.0147));
#1252=CARTESIAN_POINT('',(-0.0179058917565271,0.0357918990775943,0.0147));
#1253=CARTESIAN_POINT('',(-0.0389445349574089,0.0298786889761686,0.0147));
#1254=CARTESIAN_POINT('',(-0.0389445349574089,0.0298786889761686,0.0127));
#1255=CARTESIAN_POINT('',(0.0087119220988825,0.0218818300176396,0.0127));
#1256=CARTESIAN_POINT('',(0.0087119220988825,0.0218818300176396,0.));
#1257=CARTESIAN_POINT('',(0.0142910927534103,0.0417051091790199,0.));
#1258=CARTESIAN_POINT('',(0.0142910927534103,0.0417051091790199,0.0127));
#1259=CARTESIAN_POINT('',(0.0142910927534103,0.0417051091790199,0.0147));
#1260=CARTESIAN_POINT('',(0.0087119220988825,0.0218818300176396,0.0147));
#1261=CARTESIAN_POINT('',(0.0351530332118273,0.0358336120843888,0.0127));
#1262=CARTESIAN_POINT('',(0.0351530332118273,0.0358336120843888,0.));
#1263=CARTESIAN_POINT('',(0.0560149736702442,0.0299621149897575,0.));
#1264=CARTESIAN_POINT('',(0.0560149736702442,0.0299621149897575,0.0127));
#1265=CARTESIAN_POINT('',(0.0560149736702442,0.0299621149897575,0.0147));
#1266=CARTESIAN_POINT('',(0.0351530332118273,0.0358336120843888,0.0147));
#1267=CARTESIAN_POINT('',(0.0555293527871854,0.0264048958197236,0.0127));
#1268=CARTESIAN_POINT('',(0.0555293527871854,0.0264048958197236,0.));
#1269=CARTESIAN_POINT('',(0.0560149736702442,0.0228476766496897,0.));
#1270=CARTESIAN_POINT('',(0.0560149736702442,0.0228476766496897,0.0127));
#1271=CARTESIAN_POINT('',(0.0560149736702442,0.0228476766496897,0.0147));
#1272=CARTESIAN_POINT('',(0.0555293527871854,0.0264048958197236,0.0147));
#1273=CARTESIAN_POINT('',(0.0542312357574701,0.0223618559539318,0.0127));
#1274=CARTESIAN_POINT('',(0.0542312357574701,0.0223618559539318,0.));
#1275=CARTESIAN_POINT('',(0.052447497844696,0.0218760352581739,0.));
#1276=CARTESIAN_POINT('',(0.052447497844696,0.0218760352581739,0.0127));
#1277=CARTESIAN_POINT('',(0.052447497844696,0.0218760352581739,0.0147));
#1278=CARTESIAN_POINT('',(0.0542312357574701,0.0223618559539318,0.0147));
#1279=CARTESIAN_POINT('',(0.052447497844696,0.0160839757882058,0.0127));
#1280=CARTESIAN_POINT('',(0.052447497844696,0.0160839757882058,0.));
#1281=CARTESIAN_POINT('',(0.052447497844696,0.0102919163182378,0.));
#1282=CARTESIAN_POINT('',(0.052447497844696,0.0102919163182378,0.0127));
#1283=CARTESIAN_POINT('',(0.052447497844696,0.0102919163182378,0.0147));
#1284=CARTESIAN_POINT('',(0.052447497844696,0.0160839757882058,0.0147));
#1285=CARTESIAN_POINT('',(0.0548687614500523,0.0030595543794334,0.0127));
#1286=CARTESIAN_POINT('',(0.0548687614500523,0.0030595543794334,0.));
#1287=CARTESIAN_POINT('',(0.0572900250554085,-0.004172807559371,0.));
#1288=CARTESIAN_POINT('',(0.0572900250554085,-0.004172807559371,0.0127));
#1289=CARTESIAN_POINT('',(0.0572900250554085,-0.004172807559371,0.0147));
#1290=CARTESIAN_POINT('',(0.0548687614500523,0.0030595543794334,0.0147));
#1291=CARTESIAN_POINT('',(0.0509389583021402,0.00162539388395052,0.0127));
#1292=CARTESIAN_POINT('',(0.0509389583021402,0.00162539388395052,0.));
#1293=CARTESIAN_POINT('',(0.044587891548872,-0.004172807559371,0.));
#1294=CARTESIAN_POINT('',(0.044587891548872,-0.004172807559371,0.0127));
#1295=CARTESIAN_POINT('',(0.044587891548872,-0.004172807559371,0.0147));
#1296=CARTESIAN_POINT('',(0.0509389583021402,0.00162539388395052,0.0147));
#1297=CARTESIAN_POINT('',(0.0469264648854733,0.0030595543794334,0.0127));
#1298=CARTESIAN_POINT('',(0.0469264648854733,0.0030595543794334,0.));
#1299=CARTESIAN_POINT('',(0.0492650382220745,0.0102919163182378,0.));
#1300=CARTESIAN_POINT('',(0.0492650382220745,0.0102919163182378,0.0127));
#1301=CARTESIAN_POINT('',(0.0492650382220745,0.0102919163182378,0.0147));
#1302=CARTESIAN_POINT('',(0.0469264648854733,0.0030595543794334,0.0147));
#1303=CARTESIAN_POINT('',(0.0492650382220745,0.0156171438284219,0.0127));
#1304=CARTESIAN_POINT('',(0.0492650382220745,0.0156171438284219,0.));
#1305=CARTESIAN_POINT('',(0.0492650382220745,0.0209423713386059,0.));
#1306=CARTESIAN_POINT('',(0.0492650382220745,0.0209423713386059,0.0127));
#1307=CARTESIAN_POINT('',(0.0492650382220745,0.0209423713386059,0.0147));
#1308=CARTESIAN_POINT('',(0.0492650382220745,0.0156171438284219,0.0147));
#1309=CARTESIAN_POINT('',(0.0437716636806727,0.0191077059134841,0.0127));
#1310=CARTESIAN_POINT('',(0.0437716636806727,0.0191077059134841,0.));
#1311=CARTESIAN_POINT('',(0.0382782891392708,0.0172730404883623,0.));
#1312=CARTESIAN_POINT('',(0.0382782891392708,0.0172730404883623,0.0127));
#1313=CARTESIAN_POINT('',(0.0382782891392708,0.0172730404883623,0.0147));
#1314=CARTESIAN_POINT('',(0.0437716636806727,0.0191077059134841,0.0147));
#1315=CARTESIAN_POINT('',(0.0382782891392708,0.00669878337066621,0.0127));
#1316=CARTESIAN_POINT('',(0.0382782891392708,0.00669878337066621,0.));
#1317=CARTESIAN_POINT('',(0.0382782891392708,-0.0038754737470299,0.));
#1318=CARTESIAN_POINT('',(0.0382782891392708,-0.0038754737470299,0.0127));
#1319=CARTESIAN_POINT('',(0.0382782891392708,-0.0038754737470299,0.0147));
#1320=CARTESIAN_POINT('',(0.0382782891392708,0.00669878337066621,0.0147));
#1321=CARTESIAN_POINT('',(0.00867043063044548,0.0284419465837994,0.0127));
#1322=CARTESIAN_POINT('',(0.00867043063044548,0.0284419465837994,0.));
#1323=CARTESIAN_POINT('',(-0.0209374278783798,-0.00387547374702989,0.));
#1324=CARTESIAN_POINT('',(-0.0209374278783798,-0.00387547374702989,0.0127));
#1325=CARTESIAN_POINT('',(-0.0209374278783798,-0.00387547374702989,0.0147));
#1326=CARTESIAN_POINT('',(0.00867043063044548,0.0284419465837994,0.0147));
#1327=CARTESIAN_POINT('',(-0.0209374278783798,0.00669878337066621,0.0127));
#1328=CARTESIAN_POINT('',(-0.0209374278783798,0.00669878337066621,0.));
#1329=CARTESIAN_POINT('',(-0.0209374278783798,0.0172730404883623,0.));
#1330=CARTESIAN_POINT('',(-0.0209374278783798,0.0172730404883623,0.0127));
#1331=CARTESIAN_POINT('',(-0.0209374278783798,0.0172730404883623,0.0147));
#1332=CARTESIAN_POINT('',(-0.0209374278783798,0.00669878337066621,0.0147));
#1333=CARTESIAN_POINT('',(-0.029920419678092,0.0201420793309808,0.0127));
#1334=CARTESIAN_POINT('',(-0.029920419678092,0.0201420793309808,0.));
#1335=CARTESIAN_POINT('',(-0.0389034114778042,0.0230111181735993,0.));
#1336=CARTESIAN_POINT('',(-0.0389034114778042,0.0230111181735993,0.0127));
#1337=CARTESIAN_POINT('',(-0.0389034114778042,0.0230111181735993,0.0147));
#1338=CARTESIAN_POINT('',(-0.029920419678092,0.0201420793309808,0.0147));
#1339=CARTESIAN_POINT('',(-0.0184470514450544,0.0377172941517318,0.0127));
#1340=CARTESIAN_POINT('',(-0.0184470514450544,0.0377172941517318,0.));
#1341=CARTESIAN_POINT('',(0.00259091169716215,0.0436303129833904,0.));
#1342=CARTESIAN_POINT('',(-0.0392562089743042,0.031868584264444,0.));
#1343=CARTESIAN_POINT('',(-0.0392562089743042,0.031868584264444,0.0127));
#1344=CARTESIAN_POINT('',(-0.0392562089743042,0.031868584264444,0.0127));
#1345=CARTESIAN_POINT('',(-0.0184470514450544,0.0377172941517318,0.0127));
#1346=CARTESIAN_POINT('',(0.00259091169716215,0.0436303129833904,0.0127));
#1347=CARTESIAN_POINT('',(0.00259091169716215,0.0436303129833904,0.0127));
#1348=CARTESIAN_POINT('',(-0.0389239732176066,0.0264449035748839,0.0127));
#1349=CARTESIAN_POINT('',(-0.0389239732176066,0.0264449035748839,0.));
#1350=CARTESIAN_POINT('',(-0.039244469186031,0.0210205164984891,0.));
#1351=CARTESIAN_POINT('',(-0.039244469186031,0.0210205164984891,0.0127));
#1352=CARTESIAN_POINT('',(-0.039244469186031,0.0210205164984891,0.0127));
#1353=CARTESIAN_POINT('',(-0.0389239732176066,0.0264449035748839,0.0127));
#1354=CARTESIAN_POINT('',(-0.0305289093390363,0.0182368915889134,0.0127));
#1355=CARTESIAN_POINT('',(-0.0305289093390363,0.0182368915889134,0.));
#1356=CARTESIAN_POINT('',(-0.0229374278783799,0.015812281206397,0.));
#1357=CARTESIAN_POINT('',(-0.0229374278783799,0.015812281206397,0.0127));
#1358=CARTESIAN_POINT('',(-0.0229374278783799,0.015812281206397,0.0127));
#1359=CARTESIAN_POINT('',(-0.0305289093390363,0.0182368915889134,0.0127));
#1360=CARTESIAN_POINT('',(-0.0229374278783799,0.00669878337066621,0.0127));
#1361=CARTESIAN_POINT('',(-0.0229374278783799,0.00669878337066621,0.));
#1362=CARTESIAN_POINT('',(-0.0229374278783799,-0.00474393817262779,0.));
#1363=CARTESIAN_POINT('',(-0.0229374278783799,-0.00474393817262779,0.0127));
#1364=CARTESIAN_POINT('',(-0.0229374278783799,-0.00474393817262779,0.0127));
#1365=CARTESIAN_POINT('',(-0.0229374278783799,0.00669878337066621,0.0127));
#1366=CARTESIAN_POINT('',(0.00867043063044548,0.0284419465837994,0.0127));
#1367=CARTESIAN_POINT('',(0.00867043063044548,0.0284419465837994,0.));
#1368=CARTESIAN_POINT('',(0.0402782891392708,-0.00474393817262779,0.));
#1369=CARTESIAN_POINT('',(0.0402782891392708,-0.00474393817262779,0.0127));
#1370=CARTESIAN_POINT('',(0.0402782891392708,-0.00474393817262779,0.0127));
#1371=CARTESIAN_POINT('',(0.00867043063044548,0.0284419465837994,0.0127));
#1372=CARTESIAN_POINT('',(0.0402782891392708,0.00669878337066621,0.0127));
#1373=CARTESIAN_POINT('',(0.0402782891392708,0.00669878337066621,0.));
#1374=CARTESIAN_POINT('',(0.0402782891392708,0.0158324031004712,0.));
#1375=CARTESIAN_POINT('',(0.0402782891392708,0.0158324031004712,0.0127));
#1376=CARTESIAN_POINT('',(0.0402782891392708,0.0158324031004712,0.0127));
#1377=CARTESIAN_POINT('',(0.0402782891392708,0.00669878337066621,0.0127));
#1378=CARTESIAN_POINT('',(0.0444052194913813,0.0172107064314817,0.0127));
#1379=CARTESIAN_POINT('',(0.0444052194913813,0.0172107064314817,0.));
#1380=CARTESIAN_POINT('',(0.0472650382220745,0.0181658225459529,0.));
#1381=CARTESIAN_POINT('',(0.0472650382220745,0.0181658225459529,0.0127));
#1382=CARTESIAN_POINT('',(0.0472650382220745,0.0181658225459529,0.0127));
#1383=CARTESIAN_POINT('',(0.0444052194913813,0.0172107064314817,0.0127));
#1384=CARTESIAN_POINT('',(0.0472650382220745,0.0156171438284219,0.0127));
#1385=CARTESIAN_POINT('',(0.0472650382220745,0.0156171438284219,0.));
#1386=CARTESIAN_POINT('',(0.0472650382220745,0.0106072278735252,0.));
#1387=CARTESIAN_POINT('',(0.0472650382220745,0.0106072278735252,0.0127));
#1388=CARTESIAN_POINT('',(0.0472650382220745,0.0106072278735252,0.0127));
#1389=CARTESIAN_POINT('',(0.0472650382220745,0.0156171438284219,0.0127));
#1390=CARTESIAN_POINT('',(0.0450234750415485,0.00367488327841285,0.0127));
#1391=CARTESIAN_POINT('',(0.0450234750415485,0.00367488327841285,0.));
#1392=CARTESIAN_POINT('',(0.0423515667584418,-0.00458836314977138,0.));
#1393=CARTESIAN_POINT('',(0.0423515667584418,-0.00458836314977138,0.0127));
#1394=CARTESIAN_POINT('',(0.0423515667584418,-0.00458836314977138,0.0127));
#1395=CARTESIAN_POINT('',(0.0450234750415485,0.00367488327841285,0.0127));
#1396=CARTESIAN_POINT('',(0.0509389583021402,0.00162539388395052,0.0127));
#1397=CARTESIAN_POINT('',(0.0509389583021402,0.00162539388395052,0.));
#1398=CARTESIAN_POINT('',(0.0595344812364748,-0.00457711008495105,0.));
#1399=CARTESIAN_POINT('',(0.0595344812364748,-0.00457711008495105,0.0127));
#1400=CARTESIAN_POINT('',(0.0595344812364748,-0.00457711008495105,0.0127));
#1401=CARTESIAN_POINT('',(0.0509389583021402,0.00162539388395052,0.0127));
#1402=CARTESIAN_POINT('',(0.0567653022763782,0.00369448185094408,0.0127));
#1403=CARTESIAN_POINT('',(0.0567653022763782,0.00369448185094408,0.));
#1404=CARTESIAN_POINT('',(0.0544474978446961,0.0106178092062173,0.));
#1405=CARTESIAN_POINT('',(0.0544474978446961,0.0106178092062173,0.0127));
#1406=CARTESIAN_POINT('',(0.0544474978446961,0.0106178092062173,0.0127));
#1407=CARTESIAN_POINT('',(0.0567653022763782,0.00369448185094408,0.0127));
#1408=CARTESIAN_POINT('',(0.0544474978446961,0.0160839757882058,0.0127));
#1409=CARTESIAN_POINT('',(0.0544474978446961,0.0160839757882058,0.));
#1410=CARTESIAN_POINT('',(0.0544474978446961,0.0203479037004172,0.));
#1411=CARTESIAN_POINT('',(0.0544474978446961,0.0203479037004172,0.0127));
#1412=CARTESIAN_POINT('',(0.0544474978446961,0.0203479037004172,0.0127));
#1413=CARTESIAN_POINT('',(0.0544474978446961,0.0160839757882058,0.0127));
#1414=CARTESIAN_POINT('',(0.0547568127261639,0.0204321490202295,0.0127));
#1415=CARTESIAN_POINT('',(0.0547568127261639,0.0204321490202295,0.));
#1416=CARTESIAN_POINT('',(0.056428637678733,0.020887488986839,0.));
#1417=CARTESIAN_POINT('',(0.056428637678733,0.020887488986839,0.0127));
#1418=CARTESIAN_POINT('',(0.056428637678733,0.020887488986839,0.0127));
#1419=CARTESIAN_POINT('',(0.0547568127261639,0.0204321490202295,0.0127));
#1420=CARTESIAN_POINT('',(0.0555293527871854,0.0264048958197236,0.0127));
#1421=CARTESIAN_POINT('',(0.0555293527871854,0.0264048958197236,0.));
#1422=CARTESIAN_POINT('',(0.0564379122420923,0.0319207829825133,0.));
#1423=CARTESIAN_POINT('',(0.0564379122420923,0.0319207829825133,0.0127));
#1424=CARTESIAN_POINT('',(0.0564379122420923,0.0319207829825133,0.0127));
#1425=CARTESIAN_POINT('',(0.0555293527871854,0.0264048958197236,0.0127));
#1426=CARTESIAN_POINT('',(0.0356948729590198,0.0377588158887592,0.0127));
#1427=CARTESIAN_POINT('',(0.0356948729590198,0.0377588158887592,0.));
#1428=CARTESIAN_POINT('',(0.0148329325006029,0.0436303129833904,0.));
#1429=CARTESIAN_POINT('',(0.0148329325006029,0.0436303129833904,0.0127));
#1430=CARTESIAN_POINT('',(0.0148329325006029,0.0436303129833904,0.0127));
#1431=CARTESIAN_POINT('',(0.0356948729590198,0.0377588158887592,0.0127));
#1432=CARTESIAN_POINT('',(0.0087119220988825,0.0218818300176396,0.0127));
#1433=CARTESIAN_POINT('',(0.0087119220988825,0.0218818300176396,0.));
#1434=CARTESIAN_POINT('',(0.0087119220988825,0.0218818300176396,0.0127));
#1435=CARTESIAN_POINT('',(-0.0389239732176066,0.0264449035748839,0.0127));
#1436=CARTESIAN_POINT('',(-0.0389239732176066,0.0264449035748839,0.));
#1437=CARTESIAN_POINT('',(-0.0389239732176066,0.0264449035748839,0.0147));
#1438=CARTESIAN_POINT('',(-0.0389239732176066,0.0264449035748839,0.));
#1439=CARTESIAN_POINT('',(-0.0389239732176066,0.0264449035748839,0.0147));
#1440=CARTESIAN_POINT('',(-0.0199352405885043,0.04301213060561,0.0147));
#1441=CARTESIAN_POINT('',(0.00110085239238276,0.048924623445409,0.0147));
#1442=CARTESIAN_POINT('',(-0.0402775008392648,0.0372946488434979,0.0147));
#1443=CARTESIAN_POINT('',(-0.0389239732176066,0.0264449035748839,0.0147));
#1444=CARTESIAN_POINT('',(-0.040374376313831,0.015607683438942,0.0147));
#1445=CARTESIAN_POINT('',(-0.032202255906633,0.012997625298228,0.0147));
#1446=CARTESIAN_POINT('',(-0.0284374278783798,0.0117951931809925,0.0147));
#1447=CARTESIAN_POINT('',(-0.0284374278783798,0.00669878337066621,0.0147));
#1448=CARTESIAN_POINT('',(-0.0284374278783798,-0.00702272591140532,0.0147));
#1449=CARTESIAN_POINT('',(0.00867043063044548,0.0284419465837994,0.0147));
#1450=CARTESIAN_POINT('',(0.0412439762447226,-0.0112279448254008,0.0147));
#1451=CARTESIAN_POINT('',(0.0509389583021402,0.00162539388395052,0.0147));
#1452=CARTESIAN_POINT('',(0.0655335401704737,-0.00517160347955263,0.0147));
#1453=CARTESIAN_POINT('',(0.0619807895487745,0.00544053239759846,0.0147));
#1454=CARTESIAN_POINT('',(0.059947497844696,0.0115140146481609,0.0147));
#1455=CARTESIAN_POINT('',(0.059947497844696,0.0160839757882058,0.0147));
#1456=CARTESIAN_POINT('',(0.059947497844696,0.016232735839953,0.0147));
#1457=CARTESIAN_POINT('',(0.0555293527871854,0.0264048958197236,0.0147));
#1458=CARTESIAN_POINT('',(0.0576836170274487,0.0372838658990269,0.0147));
#1459=CARTESIAN_POINT('',(0.0371849322637992,0.0430531263507778,0.0147));
#1460=CARTESIAN_POINT('',(0.0163229918053822,0.048924623445409,0.0147));
#1461=CARTESIAN_POINT('',(0.0087119220988825,0.0218818300176396,0.0147));
#1462=CARTESIAN_POINT('',(-0.0389239732176066,0.0264449035748839,0.0127));
#1463=CARTESIAN_POINT('',(-0.0199352405885043,0.04301213060561,0.0127));
#1464=CARTESIAN_POINT('',(0.00110085239238276,0.048924623445409,0.0127));
#1465=CARTESIAN_POINT('',(-0.0402775008392648,0.0372946488434979,0.0127));
#1466=CARTESIAN_POINT('',(0.0087119220988825,0.0218818300176396,0.0127));
#1467=CARTESIAN_POINT('',(0.0163229918053822,0.048924623445409,0.0127));
#1468=CARTESIAN_POINT('',(0.0371849322637992,0.0430531263507778,0.0127));
#1469=CARTESIAN_POINT('',(0.0576836170274487,0.0372838658990269,0.0127));
#1470=CARTESIAN_POINT('',(0.0555293527871854,0.0264048958197236,0.0127));
#1471=CARTESIAN_POINT('',(0.059947497844696,0.016232735839953,0.0127));
#1472=CARTESIAN_POINT('',(0.059947497844696,0.0160839757882058,0.0127));
#1473=CARTESIAN_POINT('',(0.059947497844696,0.0115140146481609,0.0127));
#1474=CARTESIAN_POINT('',(0.0619807895487745,0.00544053239759846,0.0127));
#1475=CARTESIAN_POINT('',(0.0655335401704737,-0.00517160347955263,0.0127));
#1476=CARTESIAN_POINT('',(0.0509389583021402,0.00162539388395052,0.0127));
#1477=CARTESIAN_POINT('',(0.0412439762447226,-0.0112279448254008,0.0127));
#1478=CARTESIAN_POINT('',(0.00867043063044548,0.0284419465837994,0.0127));
#1479=CARTESIAN_POINT('',(-0.0284374278783798,-0.00702272591140532,0.0127));
#1480=CARTESIAN_POINT('',(-0.0284374278783798,0.00669878337066621,0.0127));
#1481=CARTESIAN_POINT('',(-0.0284374278783798,0.0117951931809925,0.0127));
#1482=CARTESIAN_POINT('',(-0.032202255906633,0.012997625298228,0.0127));
#1483=CARTESIAN_POINT('',(-0.040374376313831,0.015607683438942,0.0127));
#1484=CARTESIAN_POINT('',(-0.0389239732176066,0.0264449035748839,0.0127));
#1485=CARTESIAN_POINT('',(-0.0199352405885043,0.04301213060561,0.0147));
#1486=CARTESIAN_POINT('',(-0.0402775008392648,0.0372946488434979,0.0147));
#1487=CARTESIAN_POINT('',(0.00110085239238276,0.048924623445409,0.0147));
#1488=CARTESIAN_POINT('',(-0.0389239732176066,0.0264449035748839,0.0147));
#1489=CARTESIAN_POINT('',(-0.040374376313831,0.015607683438942,0.0147));
#1490=CARTESIAN_POINT('',(-0.032202255906633,0.012997625298228,0.0147));
#1491=CARTESIAN_POINT('',(-0.0284374278783798,0.0117951931809925,0.0147));
#1492=CARTESIAN_POINT('',(-0.0284374278783798,0.00669878337066621,0.0147));
#1493=CARTESIAN_POINT('',(-0.0284374278783798,-0.00702272591140532,0.0147));
#1494=CARTESIAN_POINT('',(0.00867043063044548,0.0284419465837994,0.0147));
#1495=CARTESIAN_POINT('',(0.0412439762447226,-0.0112279448254008,0.0147));
#1496=CARTESIAN_POINT('',(0.0509389583021402,0.00162539388395052,0.0147));
#1497=CARTESIAN_POINT('',(0.0655335401704737,-0.00517160347955263,0.0147));
#1498=CARTESIAN_POINT('',(0.0619807895487745,0.00544053239759846,0.0147));
#1499=CARTESIAN_POINT('',(0.059947497844696,0.0115140146481609,0.0147));
#1500=CARTESIAN_POINT('',(0.059947497844696,0.0160839757882058,0.0147));
#1501=CARTESIAN_POINT('',(0.059947497844696,0.016232735839953,0.0147));
#1502=CARTESIAN_POINT('',(0.0555293527871854,0.0264048958197236,0.0147));
#1503=CARTESIAN_POINT('',(0.0576836170274487,0.0372838658990269,0.0147));
#1504=CARTESIAN_POINT('',(0.0371849322637992,0.0430531263507778,0.0147));
#1505=CARTESIAN_POINT('',(0.0163229918053822,0.048924623445409,0.0147));
#1506=CARTESIAN_POINT('',(0.0087119220988825,0.0218818300176396,0.0147));
#1507=MECHANICAL_DESIGN_GEOMETRIC_PRESENTATION_REPRESENTATION('',(#904),
#1508);
#1508=(
GEOMETRIC_REPRESENTATION_CONTEXT(3)
GLOBAL_UNCERTAINTY_ASSIGNED_CONTEXT((#1509))
GLOBAL_UNIT_ASSIGNED_CONTEXT((#1512,#1511,#1510))
REPRESENTATION_CONTEXT('Part 1','TOP_LEVEL_ASSEMBLY_PART')
);
#1509=UNCERTAINTY_MEASURE_WITH_UNIT(LENGTH_MEASURE(1.E-8),#1512,
'DISTANCE_ACCURACY_VALUE','Maximum Tolerance applied to model');
#1510=(
NAMED_UNIT(*)
SI_UNIT($,.STERADIAN.)
SOLID_ANGLE_UNIT()
);
#1511=(
NAMED_UNIT(*)
PLANE_ANGLE_UNIT()
SI_UNIT($,.RADIAN.)
);
#1512=(
LENGTH_UNIT()
NAMED_UNIT(*)
SI_UNIT($,.METRE.)
);
#1513=PRODUCT_DEFINITION_SHAPE('','',#1514);
#1514=PRODUCT_DEFINITION('','',#1516,#1515);
#1515=PRODUCT_DEFINITION_CONTEXT('',#1522,'design');
#1516=PRODUCT_DEFINITION_FORMATION_WITH_SPECIFIED_SOURCE('','',#1518,
 .NOT_KNOWN.);
#1517=PRODUCT_RELATED_PRODUCT_CATEGORY('','',(#1518));
#1518=PRODUCT('Part 1','Part 1','Part 1',(#1520));
#1519=PRODUCT_CATEGORY('','');
#1520=PRODUCT_CONTEXT('',#1522,'mechanical');
#1521=APPLICATION_PROTOCOL_DEFINITION('international standard',
'ap242_managed_model_based_3d_engineering',2020,#1522);
#1522=APPLICATION_CONTEXT('managed model based 3d engineering');
ENDSEC;
END-ISO-10303-21;
